<svg width="479.99999999999994" height="479.99999999999994" xmlns="http://www.w3.org/2000/svg" xmlns:svg="http://www.w3.org/2000/svg">
 <circle fill="#5e7290" cx="240" cy="240" r="160" />
 <g>
  <path d="m103.76071,328.54704c1.20954,-0.30527 2.0277,-0.43762 2.99146,-0.85471c0.81983,-0.3548 1.28281,-0.78876 1.9829,-1.34015c1.00965,-0.7952 1.655,-1.30435 2.39202,-1.87579c0.81048,-0.62839 1.68323,-1.29947 2.60513,-2.00128c0.95384,-0.72614 1.92785,-1.46307 2.91282,-2.1936c1.92536,-1.42801 2.85183,-2.09067 3.74358,-2.7225c0.85561,-0.60623 1.68196,-1.18015 2.47821,-1.72565c0.76393,-0.52338 1.50049,-1.02032 2.20897,-1.49487c1.33324,-0.89301 1.96352,-1.30978 2.56866,-1.71509c0.58545,-0.39212 1.15321,-0.77451 1.70384,-1.15256c0.53995,-0.3707 1.07013,-0.73911 1.58847,-1.11411c1.03432,-0.74832 1.54265,-1.14252 2.05241,-1.53732c0.50847,-0.3938 1.00923,-0.78918 1.50513,-1.17691c0.48647,-0.38037 0.96005,-0.75223 1.42821,-1.10001c0.88014,-0.65381 1.30324,-0.93594 1.71054,-1.19659c0.39027,-0.24976 0.77293,-0.4819 1.5248,-0.90485c0.36899,-0.20758 1.50012,-0.81805 2.28033,-1.26495c0.79936,-0.45786 1.58734,-0.93051 1.97223,-1.16522c1.09392,-0.66708 1.73557,-1.08899 2.58675,-1.61554c0.68829,-0.42578 1.73268,-0.74753 2.38007,-1.39474c0.58015,-0.57999 1.08678,-1.34006 1.74814,-1.75726c0.98756,-0.62299 1.48314,-0.87485 2.25299,-1.4473c0.60002,-0.44617 1.59607,-1.31552 1.95557,-1.66153c0.7838,-0.75439 1.17845,-1.19421 1.58176,-1.66611c0.4239,-0.496 1.69948,-2.23517 2.11781,-2.90085c0.43098,-0.68582 0.84169,-1.39807 1.23718,-2.11795c0.38934,-0.70871 0.75034,-1.4043 1.08333,-2.07178c0.31064,-0.62271 0.82722,-1.69696 1.16396,-2.50031c0.39381,-0.93954 0.88744,-1.72412 1.34473,-2.37378c0.57115,-0.81143 0.51459,-1.58643 0.97095,-2.48206c0.4415,-0.86646 1.19342,-1.26904 1.42052,-2.17691c0.21448,-0.85739 0.24484,-1.74213 0.56694,-2.62991c0.29337,-0.80859 0.7177,-1.41867 1.02878,-2.05954c0.48283,-0.99469 0.81816,-1.99033 1.02565,-2.55643c0.22105,-0.60312 0.44324,-1.237 0.93561,-2.53674c0.24725,-0.65271 0.75288,-1.90646 1.01767,-2.48376c0.4895,-1.06726 0.73608,-1.54697 1.22079,-2.39316c0.41559,-0.72549 1.08333,-1.77448 1.61253,-2.37607c0.57269,-0.65103 1.27252,-1.12656 1.75385,-1.91452c0.46832,-0.76669 1.00383,-1.35248 1.68903,-1.89688c0.72464,-0.57574 1.22739,-1.15472 1.81439,-1.75684c0.56291,-0.57739 1.23036,-1.35239 1.6396,-1.78561c0.44977,-0.47614 0.94093,-0.99823 2.12193,-2.11053c0.66104,-0.62259 1.38336,-1.25729 2.13461,-1.91797c0.7701,-0.67725 1.55336,-1.35605 2.32693,-2.04102c0.76059,-0.67346 1.51134,-1.31305 2.80341,-2.59372c0.57654,-0.57144 1.08084,-1.1293 1.52565,-1.67181c0.42091,-0.51337 0.79668,-1.02969 1.14102,-1.54871c0.34229,-0.5159 0.66562,-1.05258 1.32195,-2.1926c0.35321,-0.61353 0.71773,-1.26297 1.11024,-1.93716c0.40967,-0.70367 0.84294,-1.43164 1.31026,-2.17566c0.48352,-0.76982 0.98256,-1.56654 2.13789,-3.15213c0.60187,-0.826 1.25615,-1.64581 1.92949,-2.48206c0.68843,-0.85498 1.40228,-1.7186 2.1218,-2.60513c0.7321,-0.90205 1.48785,-1.81021 2.92877,-3.74472c0.73357,-0.98486 1.43518,-1.99776 2.1218,-3.01025c0.67513,-0.99556 1.31633,-1.97453 1.92949,-2.91795c0.58192,-0.89537 1.11169,-1.74159 2.07408,-3.1886c0.3981,-0.59859 0.75452,-1.1098 1.07436,-1.54231c0.27568,-0.37279 0.52457,-0.68655 0.75128,-0.95c0.1994,-0.23169 0.38831,-0.43106 0.73846,-0.78406c0.1701,-0.17148 0.34073,-0.34073 0.50897,-0.50897c0.16566,-0.16566 0.32831,-0.32751 0.63875,-0.63875c0.76634,-0.76826 1.21982,-1.54416 1.56111,-2.17307c0.47235,-0.87041 1.19966,-1.24825 1.97421,-1.80742c0.75406,-0.54439 1.03169,-1.2103 1.55627,-2.21837c0.33443,-0.64267 0.924,-1.52733 1.53917,-2.14117c0.56598,-0.56476 1.48277,-1.33614 1.80113,-1.61296c0.77042,-0.66991 1.21501,-1.08235 1.69174,-1.55954c0.528,-0.5285 1.09425,-1.12831 1.67564,-1.82179c1.33105,-1.58769 2.00441,-2.55104 2.7225,-3.57152c0.7495,-1.06511 1.49484,-2.17418 2.24359,-3.29616c0.74414,-1.11507 1.46181,-2.21248 2.16667,-3.25769c1.27792,-1.89497 1.85471,-2.69771 2.38518,-3.40398c0.47279,-0.62947 0.90926,-1.17674 1.30641,-1.65385c0.35199,-0.42287 0.67558,-0.7881 0.96025,-1.11539c0.48413,-0.55659 0.68633,-0.80414 0.86154,-1.03818c0.16046,-0.21432 0.29964,-0.41679 0.4218,-0.6064c0.48965,-0.76003 0.93976,-1.28833 1.59187,-2.02309c0.63007,-0.70992 0.99808,-1.46643 1.453,-2.16139c0.45515,-0.6953 0.83026,-1.55411 0.85469,-2.5641c0.01782,-0.73668 0.02278,-1.56911 0.14587,-2.26439c0.21072,-1.19028 0.33478,-1.70049 0.59032,-2.82849c0.13321,-0.58804 0.24867,-1.17807 0.56068,-2.26552c0.36179,-1.26093 0.82855,-2.10529 1.68091,-2.18576c0.73463,-0.06937 1.5873,0.44389 2.43533,0.56979c0.70319,0.1044 1.32297,-0.74646 2.16324,-1.60143c0.34161,-0.34758 1.05316,-1.14679 1.43362,-1.56808c0.7803,-0.86401 1.16135,-1.30505 1.95868,-2.10114c0.73578,-0.73462 1.45291,-1.35037 2.09232,-1.9077c0.56619,-0.49352 1.41983,-1.35345 1.86069,-1.90285c0.60217,-0.75046 1.22263,-1.22548 1.80997,-1.72906c0.81549,-0.69922 1.43723,-1.40173 1.78717,-1.79102c0.75296,-0.83765 1.13467,-1.28699 1.52936,-1.73619c1.17325,-1.33527 1.54907,-1.75821 2.28845,-2.52948c0.3457,-0.3606 0.97903,-1.03708 1.61896,-1.52849c0.98093,-0.75327 1.91592,-0.91965 2.7114,-1.54573c0.60062,-0.47272 0.8782,-1.03351 1.82306,-1.99615c0.52237,-0.53218 1.1236,-1.01939 1.72308,-1.50769c0.58124,-0.47345 1.60431,-1.32709 2.22992,-1.8755c0.54395,-0.47685 1.36511,-1.16838 2.18491,-1.5c0.85931,-0.3476 1.46198,-0.8692 2.26666,-1.38461c0.60757,-0.38916 1.09009,-1.08232 1.87805,-1.7265c0.66681,-0.54515 1.55096,-0.82425 2.33832,-1.3037c0.70889,-0.43166 1.29031,-0.98193 2.05145,-1.38576c0.76822,-0.40759 1.49289,-0.81068 2.30768,-1.21025c0.81772,-0.401 1.61923,-0.87448 2.47864,-0.9265c0.93845,-0.05679 1.88345,-0.2056 2.64957,0.24501c0.62512,0.36768 1.00189,1.34579 1.44046,1.97835c0.61157,0.8821 1.0997,1.33789 1.9054,2.14815c0.58298,0.58626 1.23492,1.16655 1.69675,1.88605c0.44849,0.69872 0.56064,1.72433 1.07465,2.54587c0.4949,0.791 1.24536,1.11348 1.81366,1.88034c0.52283,0.70551 0.79517,1.51097 1.29987,2.27921c0.45111,0.68668 0.62421,1.73175 1.04401,2.50711c0.3699,0.6832 1.17822,1.28206 1.77649,1.88034c0.68378,0.68378 1.19653,1.19666 1.89816,1.89815c0.68427,0.68411 1.23792,1.31114 1.7782,1.63234c0.95236,0.56616 1.93283,0.74706 2.39774,1.25015c0.66446,0.71906 1.34344,1.50179 1.97308,2.06154c0.33603,0.29874 1.04462,0.88954 1.73859,1.47578c0.93134,0.78676 1.65735,1.43414 2.20514,1.96738c0.67999,0.66191 1.22711,1.25354 1.84158,2.07935c0.44885,0.60323 0.76907,1.34549 1.72308,1.87321c0.77551,0.42899 1.65179,0.54291 2.3443,1.15057c0.73715,0.64685 1.01456,1.48898 1.58731,2.28546c0.46655,0.64877 1.25519,1.19347 1.96582,1.72437c0.66251,0.49496 0.79541,1.37477 1.36752,2.14017c0.50012,0.66908 0.70248,1.51479 1.15997,2.3443c0.40997,0.74338 1.18546,1.27045 1.66055,2.06354c0.37228,0.62151 0.76923,1.48959 1.19656,2.3443c0.42737,0.85471 0.76474,1.54073 1.19659,2.39302c0.33838,0.66788 0.82959,1.54265 1.41638,2.18192c0.59537,0.64864 1.21356,1.19218 1.77335,2.0188c0.55554,0.82034 1.18781,1.16385 2.06055,1.57022c0.76535,0.35637 1.17963,1.23483 1.9292,1.73277c0.72534,0.48184 1.53583,0.99837 2.13675,1.28204c0.92496,0.43666 1.88034,0.44516 2.73505,0.44516c0.85471,0 1.84573,-0.12131 2.56525,0.24388c0.91541,0.46461 1.50067,1.1297 2.37378,1.36168c0.75443,0.20044 1.63162,0.00279 2.72479,0.38875c0.70242,0.248 1.37292,0.73053 2.27921,1.28204c0.60931,0.3708 1.25732,0.74445 1.99429,1.70941c0.48959,0.64105 0.90714,1.46425 1.13962,1.88745c0.47247,0.86014 1.13593,2.10323 1.349,2.47322c0.56729,0.98512 0.93295,1.52701 1.5,2.47693c0.46527,0.77945 0.7674,1.48103 1.4245,2.2614c0.55264,0.6563 1.48596,1.01987 2.13675,1.58476c0.54089,0.46951 0.58087,1.69049 1.22736,2.25754c0.60599,0.53151 1.61118,0.66304 2.2775,1.25528c0.51208,0.45515 0.86649,1.15976 1.61096,1.87978c0.60556,0.58568 1.31155,1.16093 2.01794,1.75385c0.34396,0.28871 1.54865,1.29759 1.99561,1.73788c0.73157,0.72066 1.20767,1.43887 1.7215,2.23491c0.50369,0.78033 1.27875,1.38524 1.8295,1.7856c0.68268,0.49626 1.3504,1.38461 1.69687,1.97266c0.39838,0.67615 0.80737,1.47226 1.2923,2.35898c0.53915,0.9859 0.83118,1.50072 1.13504,2.02165c0.61191,1.04907 0.92325,1.56081 1.24445,2.049c0.88281,1.3418 1.46054,2.06033 1.98303,2.67792c0.45898,0.5425 1.24918,1.41554 1.61581,2.0332c0.44644,0.75211 0.72513,1.63867 1.08719,2.53333c0.32401,0.80064 0.82034,1.57436 1.19659,2.36012c0.36914,0.77092 1.02563,1.45299 1.70938,2.13675c0.51282,0.51282 1.13046,1.23521 1.6644,1.96196c0.48703,0.66287 0.95801,1.28903 0.89972,2.14059c-0.07071,1.03305 -0.56793,1.58844 -1.12936,2.34418c-0.44296,0.59622 -0.99304,1.46585 -1.53275,2.12534c-0.5567,0.68027 -1.28125,1.37048 -2.02621,1.85641c-0.60535,0.39487 -1.48367,0.93857 -2.00571,1.43362c-0.65518,0.62134 -1.42725,1.52679 -1.7366,1.88605c-0.67847,0.78784 -1.03101,1.20688 -1.73004,2.06268c-0.34122,0.41776 -1.24948,1.55811 -1.68549,2.18915c-0.51038,0.73868 -1.11288,1.80301 -1.5322,2.47238c-0.29413,0.46954 -0.72528,1.17288 -1.36295,2.20996c-0.42361,0.68896 -1.14941,1.24722 -1.74603,1.89261c-0.6312,0.68277 -0.67599,1.62491 -1.21722,2.43747c-0.38373,0.57608 -1.11356,1.32431 -1.60785,2.00696c-0.50101,0.69189 -1.07867,1.59601 -1.40411,2.20999c-0.43411,0.81903 -0.57462,1.81268 -1.03278,2.45499c-0.62671,0.87857 -1.17834,1.20911 -1.76865,1.79941c-0.73392,0.73392 -1.41876,1.40311 -2.00116,2.01025c-0.57327,0.59766 -1.2648,1.39215 -1.80283,2.03647c-0.57901,0.69339 -0.86426,1.05093 -1.42807,1.73862c-0.73572,0.89734 -1.41589,1.7009 -1.91782,2.21808c-0.64987,0.66962 -1.27847,1.22961 -2.01837,2.02338c-0.49255,0.52838 -0.75092,1.59088 -1.58731,2.14502c-0.73325,0.48581 -1.76041,0.04999 -2.56412,0.39685c-0.8541,0.36859 -1.37842,0.9679 -2.00241,1.60571c-0.53503,0.54688 -1.48807,0.88763 -2.01355,1.52591c-0.52301,0.63525 -0.91626,1.33054 -1.4393,1.9043c-0.70752,0.77612 -1.18649,1.21066 -1.70486,1.71054c-0.56534,0.54517 -1.17337,1.12628 -1.79999,1.75385c-0.65222,0.6532 -1.31808,1.332 -1.95386,2.06152c-1.28323,1.47247 -1.84567,2.26834 -2.3829,3.06894c-0.53375,0.79541 -1.02444,1.61197 -1.4859,2.43719c-0.45816,0.81934 -0.88599,1.64719 -1.29358,2.47565c-0.80258,1.63135 -1.17258,2.44406 -1.54074,3.24445c-0.36313,0.7894 -0.71384,1.57095 -1.04742,2.34613c-0.32849,0.76331 -0.6438,1.51816 -0.93207,2.26923c-0.56189,1.46405 -0.79852,2.19058 -1.02676,2.90372c-0.22351,0.6983 -0.42789,1.38525 -0.62308,2.0564c-0.18994,0.65311 -0.36713,1.28912 -0.54617,1.90259c-0.33905,1.16159 -0.51218,1.70355 -0.68375,2.21878c-0.16302,0.48959 -0.32651,0.9491 -0.62451,1.78235c-0.46127,1.28973 -0.67404,1.92255 -0.74542,2.98917c-0.04874,0.72836 -0.33728,1.62463 -0.85458,2.43192c-0.45642,0.71225 -0.85468,1.56696 -1.19656,2.2507c-0.34189,0.68378 -0.7677,1.53925 -1.19659,2.39319c-0.42966,0.85544 -0.7912,1.55862 -1.43817,2.39316c-0.40781,0.52606 -0.97488,1.38107 -1.29688,2.20441c-0.34055,0.87076 -0.95523,1.33859 -1.58859,1.84686c-0.87564,0.70273 -1.19611,1.01788 -1.89514,1.68549c-0.73029,0.69742 -1.08301,1.05414 -2.07181,2.04102c-0.55096,0.54987 -1.22864,1.22864 -1.79144,1.79144c-0.68719,0.68719 -1.20001,1.20001 -2.05472,2.05472c-0.50897,0.50897 -1.14771,1.14771 -1.8074,1.8074c-0.58463,0.58463 -1.18326,1.25037 -2.07535,1.69687c-0.80762,0.40424 -1.52805,0.57126 -2.37024,0.94131c-0.78864,0.34653 -1.58905,0.8136 -2.26511,1.25198c-0.79211,0.51364 -1.37805,0.93774 -2.37292,1.68918c-0.73776,0.55722 -1.10699,0.85516 -1.85541,1.42807c-0.71036,0.54376 -1.63293,1.23145 -2.38406,1.70029c-0.62521,0.39023 -1.47455,0.86166 -2.147,1.30142c-0.66867,0.43729 -1.55469,1.11044 -2.20511,1.63077c-0.43781,0.35022 -1.39502,1.07376 -2.27124,1.70926c-0.49905,0.36194 -1.03751,0.74539 -1.61026,1.14999c-0.60214,0.42535 -1.23096,0.86798 -2.56183,1.78461c-0.68979,0.47507 -1.39005,0.95081 -2.08972,1.42566c-0.69064,0.46872 -1.3649,0.92444 -2.01282,1.36411c-0.6142,0.41678 -1.19632,0.79105 -2.55957,1.76224c-0.61591,0.43878 -1.42081,1.11093 -2.04514,1.73361c-0.68503,0.68323 -1.35272,1.18854 -1.83405,1.9765c-0.46832,0.76672 -0.73444,1.59116 -1.48148,2.1846c-0.70615,0.56097 -1.30765,1.04541 -2.01852,1.42166c-0.8541,0.45206 -1.4772,0.67322 -2.35828,1.23703c-0.85306,0.5459 -1.49512,0.73099 -2.31723,1.11111c-0.83374,0.38553 -1.74637,0.81119 -2.45129,1.21497c-0.88254,0.50552 -1.211,1.25873 -1.96579,1.85284c-0.71121,0.55981 -1.54269,0.76114 -2.22223,1.37665c-0.60205,0.54532 -1.34079,0.76712 -2.13705,0.36224c-0.43225,-0.21979 -1.56839,-0.92929 -2.30624,-1.39941c-0.83731,-0.53351 -1.74353,-1.12457 -2.69745,-1.75256c-0.98004,-0.6452 -1.95874,-1.29666 -2.91281,-1.93719c-0.90802,-0.60965 -2.48312,-1.68179 -3.10812,-2.11609c-0.52011,-0.36139 -0.94406,-0.66266 -1.28845,-0.90515c-0.27536,-0.19388 -0.44626,-0.47125 -1.20914,-0.69501c-0.84692,-0.24841 -1.74585,-0.10385 -2.7168,-0.10385c-0.85471,0 -1.74423,-0.19019 -2.63533,0.07123c-1.00911,0.29605 -1.51654,0.91281 -1.88747,1.1691c-0.92108,0.63641 -1.49635,1.00717 -2.15955,1.41254c-0.7495,0.45813 -2.57349,1.48471 -3.65797,2.05328c-1.17056,0.61371 -2.41342,1.23727 -3.69615,1.87051c-1.29305,0.63831 -2.57594,1.25842 -3.81923,1.85513c-1.17612,0.56448 -3.22701,1.53958 -4.054,1.9339c-0.6955,0.33163 -1.2726,0.60782 -1.74615,0.83203c-0.38235,0.18103 -0.68735,0.32468 -0.93077,0.43207c-0.19212,0.08475 -0.48402,0.19547 -0.60883,0.23248c-0.11685,0.03467 -0.29146,-0.05258 -1.14758,0.4819c-0.63667,0.39749 -1.32668,0.97513 -2.11737,1.4017c-0.72186,0.38947 -1.40021,1.06958 -2.13405,1.59375c-0.63181,0.45126 -1.04768,1.12961 -1.7896,1.73276c-0.57986,0.47141 -0.52942,1.47476 -0.51425,2.17975c0.01871,0.8692 0.05345,1.60257 0.09003,2.59262c0.04764,1.28918 0.18732,4.93588 0.28049,7.35739c0.10629,2.76254 0.22229,5.77972 0.33975,8.96539c0.12048,3.26761 0.23726,6.53091 0.33974,9.70383c0.09676,2.99576 0.23444,8.11142 0.25484,10.08063c0.01634,1.57843 0.01079,2.81216 -0.0282,3.74487c-0.02838,0.67896 -0.06746,1.15091 -0.13589,1.45258c-0.04285,0.18887 -0.15657,0.38132 -0.19003,0.47736c-0.03804,0.10916 -0.06064,0.23901 -0.08205,0.38461c-0.02383,0.16208 -0.04268,0.34195 -0.06667,0.53845c-0.02609,0.21378 -0.09464,0.69284 -0.14445,0.9567c-0.05261,0.27866 -0.1161,0.56726 -0.19231,0.86154c-0.07758,0.29953 -0.16602,0.59885 -0.26923,0.8923c-0.10202,0.29007 -0.34039,0.83392 -0.47806,1.07864c-0.13159,0.23392 -0.27333,0.44617 -0.41283,0.64102c-0.12965,0.18112 -0.25609,0.34125 -0.36667,0.48718c-0.09674,0.12766 -0.23843,0.33008 -0.25854,0.41068c-0.01532,0.06137 0.0004,0.11856 0.03719,0.15512c0.04115,0.04092 0.106,0.06488 0.17563,0.0936c0.245,0.10101 0.93236,1.18491 1.7104,0.73947c0.78085,-0.44705 0.47336,-1.88937 -0.12877,-2.46838c-0.58072,-0.55844 -1.03754,-1.21124 -1.38177,-1.97906c-0.33685,-0.75137 -0.64693,-1.51196 -0.95555,-2.21808c-0.39929,-0.91354 -0.95689,-1.30615 -1.77109,-2.01111c-0.69133,-0.59857 -1.18633,-1.23001 -1.57364,-1.87494c-0.45467,-0.75708 -1.45653,-0.94122 -2.34985,-1.19772c-0.76691,-0.22021 -1.7511,0.02292 -2.68819,-0.33163c-0.76564,-0.2897 -1.47012,-0.60867 -2.39444,-0.91852c-0.80093,-0.26846 -1.48471,-0.72995 -1.89743,-1.01538c-1.01443,-0.70157 -1.58372,-1.18155 -2.21198,-1.70029c-0.67056,-0.55368 -1.35945,-1.14407 -2.06154,-1.75c-0.70418,-0.60773 -1.39273,-1.21121 -2.06154,-1.78845c-1.21196,-1.04605 -1.74211,-1.48349 -2.21196,-1.87692c-0.42036,-0.35199 -1.18431,-0.92999 -1.67023,-1.57693c-0.70711,-0.94144 -0.942,-1.84616 -1.1651,-2.80597c-0.11528,-0.49597 -0.27745,-1.5004 -0.33733,-1.98975c-0.16164,-1.3212 -0.09315,-2.4216 -0.43774,-3.1644c-0.39879,-0.85962 -1.29491,-1.18243 -1.89616,-1.40768c-1.32245,-0.49542 -2.01604,-0.73758 -2.68945,-1.03476c-0.66449,-0.29324 -1.91508,-0.86859 -2.49915,-1.10199c-0.80388,-0.32126 -1.54985,-0.55771 -2.58932,-1.01309c-0.73734,-0.32303 -1.5896,-0.77039 -2.33261,-1.14191c-0.90712,-0.45355 -1.45413,-0.72705 -2.40285,-1.20142c-0.71796,-0.35898 -1.10306,-0.55029 -2.35855,-1.17935c-0.91232,-0.45712 -1.38477,-0.69333 -2.34402,-1.18732c-0.48491,-0.24973 -0.97507,-0.49103 -2.38689,-1.2728c-0.9035,-0.50031 -1.33429,-0.75034 -2.1396,-1.2514c-0.7419,-0.46161 -1.66319,-1.13272 -2.41139,-1.69116c-0.62741,-0.46829 -1.46567,-0.88165 -2.35527,-1.05685c-0.88757,-0.1748 -1.40669,-0.69827 -2.22963,-1.12891c-0.80812,-0.42288 -1.72578,-0.6694 -2.48903,-1.02563c-0.88039,-0.41092 -1.52789,-0.84808 -2.58191,-1.13962c-0.67944,-0.18793 -1.46489,-0.23166 -2.29517,-0.63019c-0.73904,-0.35474 -1.46359,-0.88669 -2.49117,-1.56241c-0.51129,-0.33621 -1.26379,-0.84296 -2.30756,-1.35028c-0.50095,-0.2435 -1.50134,-0.58447 -2.37492,-0.95868c-0.78099,-0.33456 -1.64752,-0.90518 -2.17052,-1.33847c-0.62686,-0.51935 -1.12003,-0.95987 -2.10869,-1.68918c-0.77867,-0.5744 -1.20102,-0.85294 -2.03204,-1.42807c-0.78267,-0.54166 -1.76717,-1.17691 -2.3567,-1.70029c-0.52065,-0.46222 -0.91873,-1.38538 -1.66382,-2.16296c-0.49527,-0.51688 -1.18544,-1.233 -1.81197,-1.78119c-0.62611,-0.54782 -1.33122,-0.80869 -1.97835,-1.44046c-0.68903,-0.67267 -1.32581,-1.34442 -2.03191,-2.03061c-0.54524,-0.52988 -1.30122,-1.01974 -2.02451,-1.47137c-0.78598,-0.49078 -1.54607,-1.26276 -2.13617,-1.82565c-0.51796,-0.49408 -1.35493,-1.15588 -1.81154,-1.53076c-0.79887,-0.65585 -1.39159,-1.25327 -2.02322,-2.0282c-0.36098,-0.44287 -1.0907,-1.47583 -1.46781,-2.0376c-0.38767,-0.57751 -0.76995,-1.17148 -1.14871,-1.77054c-0.37564,-0.59412 -1.42188,-2.28961 -1.73676,-2.80954c-0.30044,-0.49606 -0.85748,-1.42459 -1.32478,-2.2963c-0.21902,-0.40857 -0.75978,-1.57727 -1.03718,-2.30768c-0.37256,-0.98099 -0.79314,-2.06049 -1.25,-2.57108c-0.54742,-0.61179 -1.27228,-1.38422 -1.56111,-2.03705c-0.29678,-0.67081 -0.74781,-1.70456 -1.05598,-2.55771c-0.29243,-0.80954 -0.50526,-1.67795 -1.07693,-2.4581c-0.46742,-0.63788 -1.22575,-1.08801 -1.5886,-2.0889c-0.25915,-0.71481 -0.69147,-1.48575 -0.99715,-2.297c-0.30275,-0.80347 -0.6388,-1.53848 -1.10726,-2.33804c-0.3896,-0.66495 -0.54102,-1.79776 -0.62379,-2.62195c-0.10116,-1.00729 -0.52988,-1.6091 -0.78419,-2.54358c-0.2248,-0.82605 -0.04886,-1.79486 -0.04886,-2.64957l0,-0.85471l0,-0.94019l-0.03561,-0.83688" id="svg_6" stroke-linecap="null" stroke-linejoin="null" stroke-dasharray="null" stroke="#fbfbfb" fill="none"/>
  <path d="m216.58122,431.96586c0.90813,-0.90814 1.51035,-1.49823 2.27921,-2.27921c0.57896,-0.58807 1.05641,-1.17511 1.55783,-2.04672c0.33521,-0.58267 0.70337,-1.29764 1.16924,-2.12308c0.54295,-0.96201 0.855,-1.49017 1.53903,-2.61224c0.35448,-0.58148 0.71758,-1.16089 1.08205,-1.73077c0.35524,-0.55545 1.3409,-2.03293 1.63434,-2.43164c0.51112,-0.69449 1.00087,-1.28177 1.79587,-2.10397c0.61449,-0.63553 1.3687,-1.37207 1.77592,-1.78705c0.42589,-0.43399 1.3019,-1.34967 1.73619,-1.8262c0.43294,-0.47507 1.255,-1.41968 1.96252,-2.34915c0.33195,-0.4361 0.90576,-1.27924 1.4416,-2.01495c0.67206,-0.92273 1.30014,-1.53409 1.81538,-1.98846c0.84256,-0.74304 1.2636,-1.44452 2.00569,-2.05698c0.69746,-0.57562 1.33189,-0.86154 1.97736,-1.19659c1.00861,-0.52356 1.69865,-0.85089 2.3725,-1.19656c0.98878,-0.50723 1.92149,-1.01968 2.49915,-1.36639c0.81276,-0.48779 1.526,-0.97528 2.39545,-1.46667c0.57669,-0.32593 1.58687,-0.74396 2.24971,-1.01694c0.89783,-0.36978 1.63333,-0.86755 2.27905,-1.59845c0.60562,-0.68549 1.1676,-1.13989 2.13678,-1.48831c0.82971,-0.29828 1.43845,-0.7587 2.12421,-1.4393c0.68176,-0.67664 1.44144,-0.97086 2.22223,-1.44046c0.78571,-0.47253 1.20981,-1.1196 1.80511,-1.58633c0.94183,-0.7384 1.36865,-1.02222 2.29288,-1.72079c0.50504,-0.38171 1.02661,-0.78571 1.55386,-1.21411c0.5372,-0.43649 2.09375,-1.8287 2.57376,-2.31183c0.46982,-0.47287 0.91891,-0.94125 1.71854,-1.86893c0.37103,-0.43048 1.28891,-1.58972 1.73105,-2.21426c0.50278,-0.71024 0.81158,-1.31369 1.67978,-1.9715c0.55594,-0.42123 1.41794,-0.96646 2.11508,-1.65469c0.60214,-0.59442 1.23932,-1.20581 2.00699,-1.70941c0.66364,-0.43536 1.39697,-1.02444 1.93832,-1.69687c0.53055,-0.65903 0.90527,-1.43777 1.58292,-2.12308c0.41418,-0.41885 1.08508,-1.06662 1.78546,-1.97336c0.42554,-0.55093 1.08755,-1.39102 1.73361,-1.78619c0.68948,-0.42172 1.30356,-1.05554 1.97849,-1.73703c0.70688,-0.71375 1.08841,-1.11127 1.89832,-2.08716c0.45847,-0.55243 0.8703,-1.15436 1.54657,-1.89661c0.65015,-0.71359 1.19489,-1.43085 1.55725,-2.07977c0.42786,-0.7662 1.49402,-0.74826 2.09174,-1.45755c0.59885,-0.71063 1.20471,-1.20746 1.82565,-1.83704c0.65237,-0.66144 1.60086,-1.20267 2.41226,-0.70926c0.57498,0.34964 -0.42465,0.39716 -0.3963,-0.1853c0.04782,-0.98199 0.29379,-1.63086 0.51736,-2.38861c0.25229,-0.85507 0.56644,-1.78223 0.9295,-2.76794c0.38293,-1.03961 0.8035,-2.11127 1.27563,-3.19104c0.95441,-2.18265 1.49814,-3.23044 2.04672,-4.26553c0.54916,-1.03622 1.13193,-2.06512 1.73462,-3.10257c0.61551,-1.05951 1.26334,-2.13867 1.92691,-3.25641c1.4061,-2.36844 2.14267,-3.6355 2.89572,-4.94473c0.7655,-1.3309 1.5271,-2.67004 2.28207,-3.99612c0.73792,-1.29614 1.44641,-2.5466 2.1282,-3.72693c1.21277,-2.09955 1.74176,-2.98044 2.21765,-3.75159c0.41867,-0.67844 0.79684,-1.26819 1.13846,-1.78076c0.30151,-0.45242 0.57834,-0.84897 0.83078,-1.20386c0.44925,-0.63165 0.66116,-0.92459 0.86154,-1.21024c0.19275,-0.27475 0.37592,-0.53912 0.55127,-0.79105c0.16653,-0.23926 0.32336,-0.46567 0.47437,-0.67563c0.27097,-0.37677 0.39673,-0.53842 0.51395,-0.68604c0.10876,-0.13696 0.21338,-0.26306 0.31155,-0.38333c0.09439,-0.11563 0.18939,-0.22659 0.27307,-0.34488c0.45355,-0.64111 0.7034,-1.30219 1.37778,-2.12991c0.59109,-0.72549 1.21451,-1.26324 1.75299,-1.73489c0.8024,-0.70282 1.31479,-1.02893 2.13077,-1.78076c0.33243,-0.30627 1.46872,-1.57281 1.90671,-2.12265c0.47766,-0.59967 0.96942,-1.25558 1.47565,-1.95258c0.52441,-0.72202 1.04822,-1.46902 1.56793,-2.22949c0.51846,-0.75864 1.50189,-2.25055 1.95627,-2.96652c0.43668,-0.68811 0.84787,-1.35614 1.2359,-2.00513c0.37482,-0.62686 0.72937,-1.23862 1.06668,-1.83591c0.32816,-0.58109 0.94479,-1.71216 1.23859,-2.2641c0.28854,-0.54208 0.84225,-1.6026 1.11169,-2.11966c0.26505,-0.50858 0.77856,-1.50397 1.29984,-2.45724c0.5069,-0.927 1.02936,-1.81534 1.29987,-2.24359c0.53333,-0.84436 0.79398,-1.2673 1.70969,-2.41028c0.60181,-0.75116 0.93359,-1.09067 1.55344,-1.7735c0.59045,-0.65045 1.39087,-1.55374 1.83502,-2.12393c0.60287,-0.77393 0.92416,-1.2822 1.63846,-2.1188c0.52747,-0.61777 1.16898,-1.2413 1.91455,-1.98746c0.56616,-0.56659 1.1601,-1.16013 1.75385,-1.75385c0.83078,-0.83075 1.30414,-1.32306 1.97037,-1.95258c0.64703,-0.61136 1.40079,-1.23801 1.98959,-1.69827c0.65921,-0.51529 1.41165,-1.0719 1.82123,-1.37253c1.36951,-1.00522 1.87897,-1.3674 2.40414,-1.75327c0.54495,-0.40039 1.10687,-0.81598 1.67563,-1.25641c1.17993,-0.9137 2.3699,-1.90988 2.96338,-2.43518c0.59747,-0.52884 1.18222,-1.0712 1.75,-1.6218c0.55899,-0.54208 1.09317,-1.08374 1.59616,-1.6218c0.48264,-0.5163 1.34479,-1.49286 2.01639,-2.39645c0.29941,-0.4028 0.78378,-1.16061 1.20013,-1.82123c0.6951,-1.10291 1.19461,-1.75909 1.67978,-2.2749c0.75095,-0.7984 1.2402,-1.32764 1.80383,-2.1842c0.45187,-0.68677 1.17633,-1.66406 1.49872,-2.0661c0.72879,-0.90887 1.13596,-1.38565 1.55045,-1.87463c0.41626,-0.49109 1.23044,-1.43961 1.9765,-2.27921c0.61536,-0.6925 1.14505,-1.22168 1.70212,-1.88959c0.70718,-0.8479 1.02307,-1.61359 1.70642,-2.22296c0.65637,-0.58533 1.57684,-0.73273 2.26779,-1.23672c0.68478,-0.49951 1.32159,-1.0517 1.98291,-1.3909c0.74588,-0.3826 0.76404,-1.47116 1.00287,-2.27863c0.19156,-0.64761 0.4552,-1.36954 1.1077,-2.4805c0.47339,-0.80603 0.76904,-1.18094 1.33331,-1.91951c0.52374,-0.6855 1.33353,-1.75653 1.94873,-2.29971c0.69867,-0.61688 1.44681,-0.82095 2.14471,-1.64673c0.45178,-0.53458 0.71982,-1.5609 0.93335,-2.23019c0.24689,-0.77385 0.67691,-1.91541 0.95969,-2.65399c0.31979,-0.83531 0.67487,-1.73967 1.05511,-2.68846c0.38922,-0.97119 0.78391,-1.93767 1.17822,-2.87308c0.37283,-0.88446 1.03894,-2.39261 1.32593,-2.96751c0.23318,-0.46716 0.38052,-0.88077 0.6218,-1.09616c0.76602,-0.68385 1.13867,0.0838 1.55212,0.87521c0.423,0.80971 1.48099,0.80457 2.04785,1.29915c0.56509,0.49306 -0.63831,0.92566 -1.48035,0.77907c-0.90125,-0.15691 -1.42181,-0.76225 -2.11053,-1.26567c-0.63675,-0.46541 -1.34525,-0.92703 -2.17435,-1.63533c-0.73846,-0.63087 -1.38834,-1.39008 -1.97607,-1.87238c-0.6969,-0.57187 -1.53058,-0.93015 -2.37265,-1.37891c-0.72226,-0.38492 -1.51642,-0.95761 -2.17679,-1.5369c-0.4592,-0.4028 -1.02374,-1.10138 -2.0614,-1.63461c-0.92355,-0.47459 -1.45984,-0.54077 -2.29202,-0.98219c-0.61972,-0.32872 -1.54669,-0.92438 -2.38644,-1.60783c-0.52588,-0.42799 -1.13675,-1.11214 -2.01013,-1.61482c-0.82571,-0.47525 -1.40253,-0.88293 -2.01465,-1.65071c-0.40625,-0.50955 -1.06561,-1.39194 -1.51669,-2.01225c-0.65573,-0.90172 -1.03848,-1.46953 -1.56921,-2.22108c-0.57571,-0.81529 -1.17337,-1.4514 -1.74814,-2.12193c-0.62744,-0.73199 -0.75082,-1.61308 -1.33591,-2.13675c-0.68811,-0.61586 -1.42355,-0.87778 -2.25613,-1.5248c-0.73111,-0.56818 -1.49759,-1.17558 -2.18448,-1.50711c-0.71854,-0.3468 -1.75223,-0.77441 -2.51523,-1.20114c-0.51715,-0.28925 -1.26703,-0.76909 -2.30771,-1.25072c-0.75897,-0.35126 -1.55255,-0.62871 -2.30826,-1.03078c-0.82153,-0.4371 -1.40753,-0.84747 -2.08603,-1.31224c-0.79443,-0.54417 -1.70575,-1.1924 -2.19986,-1.53903c-0.50983,-0.35765 -1.55396,-1.08379 -2.07806,-1.43932c-0.51407,-0.34872 -1.95319,-1.28151 -2.38989,-1.53903c-0.79678,-0.46986 -1.52209,-0.86087 -2.19485,-1.16924c-1.19354,-0.54707 -1.80371,-0.74904 -2.79544,-1.15926c-0.38071,-0.15747 -1.73227,-0.76559 -2.25983,-1.01511c-0.56137,-0.2655 -1.75888,-0.84384 -2.38635,-1.14644c-0.63919,-0.30824 -1.28311,-0.62263 -2.57776,-1.22849c-0.63535,-0.29732 -1.2616,-0.58363 -2.47751,-1.1282c-0.58466,-0.26186 -1.15433,-0.51042 -2.23132,-0.99146c-0.99014,-0.44225 -1.88309,-0.85489 -2.70087,-1.23988c-0.38968,-0.18346 -1.14151,-0.54999 -2.27692,-1.05641c-0.77979,-0.34781 -1.57779,-0.67886 -2.36923,-0.99487c-0.76077,-0.30377 -1.81137,-0.6944 -2.73505,-1.03476c-0.57822,-0.21307 -1.73605,-0.6709 -2.34756,-0.94928c-0.6445,-0.2934 -1.30417,-0.61903 -2.66211,-1.29459c-0.68402,-0.34029 -1.36359,-0.68318 -2.0513,-0.99487c-0.67996,-0.3082 -1.70779,-0.70065 -2.38931,-0.92593c-0.99664,-0.32945 -1.66559,-0.48897 -2.8403,-1.06039c-0.59296,-0.28844 -1.18112,-0.67494 -1.82565,-1.09744c-1.12411,-0.73689 -1.53799,-1.02235 -2.4205,-1.61481c-0.45691,-0.30675 -1.37949,-0.93016 -1.83478,-1.24445c-1.30588,-0.90144 -2.09259,-1.47037 -2.46494,-1.74017c-0.70621,-0.51172 -1.35718,-0.99962 -2.27521,-1.64587c-0.88171,-0.6207 -1.52896,-1.04279 -1.88208,-1.27179c-1.23764,-0.80264 -1.73056,-1.10991 -2.81281,-1.79103c-0.57709,-0.36319 -1.17014,-0.73399 -1.77179,-1.10896c-0.60291,-0.37575 -1.19949,-0.74911 -2.89801,-1.7926c-0.52255,-0.32104 -1.0307,-0.63029 -2.02051,-1.23305c-0.49228,-0.29977 -0.99133,-0.60023 -2.56412,-1.56696c-0.56766,-0.34891 -1.15329,-0.71152 -1.74744,-1.08717c-0.59906,-0.37877 -1.1991,-0.75215 -2.3299,-1.52934c-0.53531,-0.3679 -1.50412,-1.05818 -2.23605,-1.7379c-0.60938,-0.56589 -1.07184,-1.10118 -1.66382,-2.05583c-0.48254,-0.77818 -0.81427,-1.51434 -1.25357,-2.36082c-0.33371,-0.64304 -0.93231,-1.51907 -1.53845,-2.14059c-0.59076,-0.60574 -1.33798,-1.23125 -1.8765,-1.88036c-0.59717,-0.7198 -0.69806,-1.61705 -1.0473,-2.30769c-0.43851,-0.86714 -1.13007,-1.37888 -1.948,-1.78119c-0.8143,-0.40053 -1.62558,-1.09026 -2.47864,-0.68518c-0.6748,0.32042 -0.99918,1.35201 -1.53845,2.32393c-0.22504,0.40561 -0.74142,1.32286 -1.02338,1.82564c-0.59796,1.06621 -0.90677,1.61961 -1.21481,2.1812c-0.61411,1.11957 -1.19525,2.21716 -1.46979,2.76111c-0.27246,0.53984 -0.78732,1.62976 -1.02563,2.18633c-0.24039,0.56142 -0.6922,1.7253 -1.09088,2.95229c-0.20148,0.62001 -0.38376,1.24339 -0.56796,1.85768c-0.35522,1.18452 -0.47668,1.76189 -1.04346,3.20941c-0.31311,0.79962 -0.66968,1.46432 -1.02563,2.03845c-0.65802,1.06134 -1.04297,1.54898 -1.50769,2.3577c-0.31427,0.54689 -0.81891,1.74599 -1.02563,2.36581c-0.29236,0.87653 -0.62885,1.8222 -1.0564,2.59488c-0.427,0.77162 -0.78082,1.58128 -1.05414,2.58688c-0.21857,0.80418 -0.63794,1.547 -1.15558,2.17436c-0.69016,0.83643 -1.0351,1.38983 -1.38846,2.06667c-0.45984,0.8808 -0.81635,1.63498 -1.24969,2.47351c-0.46429,0.89844 -0.69492,1.36316 -1.47693,2.68718c-0.24966,0.42268 -0.75702,1.20819 -1.24643,1.92308c-0.44662,0.65239 -1.05396,1.48276 -1.48021,2.20341c-0.50233,0.84929 -0.96945,1.83438 -1.24615,2.39844c-0.42349,0.8633 -0.61958,1.42674 -1.11211,2.56566c-0.38399,0.88792 -0.96825,1.39981 -1.4678,2.16296c-0.41878,0.63976 -0.7036,1.34666 -1.42108,2.4084c-0.32196,0.47644 -0.70251,0.99788 -1.11795,1.57565c-0.45175,0.62827 -0.93991,1.30193 -1.45642,2.02179c-0.54564,0.76045 -1.70427,2.39752 -2.30826,3.26852c-0.61771,0.89079 -1.23564,1.79408 -1.85129,2.69487c-0.606,0.88667 -1.19313,1.74893 -1.75897,2.57179c-0.53282,0.77483 -1.47882,2.12799 -1.88448,2.68262c-0.35262,0.48212 -0.66602,0.89337 -0.94231,1.24359c-0.23824,0.30199 -0.48277,0.53311 -1.07692,1.33333c-0.36694,0.4942 -0.65479,1.32864 -1.0188,2.2131c-0.33723,0.81943 -1.09547,1.45537 -1.62051,2.23363c-0.43909,0.65086 -1.00745,1.15585 -1.60513,1.55612c-0.73317,0.49101 -1.61923,1.02586 -2.10541,1.32478c-1.05727,0.65005 -1.62404,1.00037 -2.80884,1.72906c-0.60275,0.37071 -1.20357,0.73842 -1.79744,1.09488c-0.57652,0.34605 -2.14618,1.25034 -2.59842,1.48433c-0.77516,0.40108 -1.72379,0.74643 -2.54231,1.18462c-0.70554,0.3777 -1.38342,1.12396 -1.99431,1.7094c-0.58646,0.56203 -1.44907,0.80579 -2.37607,1.10655c-0.79735,0.25871 -1.48335,0.68344 -1.89743,0.94359c-1.01088,0.63507 -1.58444,1.0661 -2.21994,1.53732c-0.68929,0.51109 -1.4158,1.07036 -2.17821,1.66539c-0.7955,0.62085 -1.61241,1.26888 -2.44743,1.93462c-1.70291,1.35768 -2.55473,2.04262 -3.40172,2.71909c-0.83278,0.66513 -1.64487,1.31258 -2.43077,1.93462c-0.75032,0.59387 -1.45866,1.15311 -2.12308,1.66537c-1.14931,0.88609 -1.63095,1.23933 -2.05014,1.53847c-0.35918,0.25632 -0.67003,0.46791 -0.93718,0.6423c-0.22649,0.14784 -0.93269,0.74565 -1.65826,1.10143c-0.86166,0.42252 -1.74413,0.52115 -2.5641,0.85855c-0.87837,0.36145 -1.73361,0.47308 -2.28433,1.13446c-0.50655,0.60831 -0.44279,1.56464 -0.80797,2.29276c-0.34567,0.68924 -1.18854,1.3223 -1.97037,1.84058c-0.5522,0.36606 -1.59677,1.12918 -1.93846,1.60117c-0.47794,0.66022 -0.87775,1.8483 -1.16283,2.44342c-0.35646,0.74414 -1.01212,1.58392 -1.44914,2.10016c-0.71887,0.84915 -1.18333,1.57217 -1.59573,2.19788c-0.52855,0.80194 -1.0145,1.4382 -1.55527,2.15881c-0.57608,0.76767 -0.89105,1.14392 -1.69231,2.33847c-0.49588,0.73929 -0.90022,1.45059 -1.26154,2.09232c-0.31763,0.56412 -1.07529,1.50238 -1.48376,2.40924c-0.38779,0.8609 -0.47951,1.5256 -0.85242,2.11609c-0.71451,1.13144 -1.28383,1.80035 -1.58405,2.18234c-0.65758,0.83664 -1.02293,1.28198 -1.40627,1.74817c-0.81633,0.9928 -1.70033,2.04211 -2.15143,2.57877c-0.45033,0.53574 -0.89536,1.06332 -1.32436,1.58078c-0.8019,0.96729 -1.48924,1.80576 -1.99316,2.50482c-0.54816,0.76044 -1.01495,1.61917 -1.59203,2.26782c-0.55565,0.62457 -1.25899,1.27792 -1.70699,1.76495c-0.89165,0.96933 -1.24191,1.3811 -1.62749,1.82135c-0.83437,0.9527 -1.26758,1.45288 -1.70712,1.95557c-0.4371,0.49988 -1.67815,1.90234 -2.052,2.31183c-0.67482,0.73914 -1.28639,1.38501 -1.56624,1.69159c-1.06311,1.16464 -1.56517,1.78629 -2.07863,2.41141c-0.25609,0.3118 -0.99957,1.23642 -1.79445,2.00198c-0.48631,0.46838 -1.31531,0.93994 -1.88077,1.74615c-0.52136,0.74335 -0.79674,1.5069 -1.54614,2.02237c-0.63174,0.43454 -1.26425,1.20218 -1.72337,1.71097c-0.58987,0.65369 -0.9198,1.0686 -1.28546,1.54074c-0.87184,1.12567 -1.34964,1.81226 -1.87465,2.55157c-0.55653,0.78369 -1.12996,1.60199 -1.72565,2.43076c-0.5986,0.83282 -1.19189,1.65598 -1.80255,2.43079c-1.13014,1.43393 -1.68575,2.02939 -2.21425,2.5527c-0.48479,0.48001 -0.9586,0.89264 -1.41411,1.24872c-0.42149,0.32947 -0.83231,0.61078 -1.94089,1.31766c-0.6483,0.41339 -1.53204,0.93494 -2.18803,1.50882c-0.72839,0.63724 -0.96016,1.41891 -1.47449,2.25613c-0.40977,0.66702 -1.41019,0.84354 -1.99332,1.4339c-0.56296,0.56995 -0.95752,1.31665 -1.74117,1.86667c-0.6704,0.47055 -1.09483,1.18335 -1.44402,1.9567c-0.32339,0.71622 -0.99087,1.37482 -1.34416,1.92865c-0.40841,0.64023 -1.00817,1.71429 -1.26324,2.17963c-0.58475,1.0668 -0.92013,1.65286 -1.29459,2.25867c-0.39139,0.63321 -0.79398,1.2959 -1.7869,2.55954c-0.51082,0.65009 -1.07404,1.26523 -1.64616,1.86539c-0.56309,0.5907 -1.12959,1.146 -1.67692,1.6731c-0.51604,0.49698 -1.04266,0.90823 -2.11425,2.04929c-0.62962,0.67044 -1.22958,1.45062 -1.84359,1.93588c-0.70285,0.55548 -1.21959,1.26529 -1.88376,1.96811c-0.52885,0.55963 -0.52193,1.45071 -0.52193,2.31964c0,1.00912 0.02423,1.80371 0.36353,2.7117c0.32534,0.87064 0.48925,1.64728 0.49117,2.57321c0.00207,0.99487 -0.02568,1.70035 0.07294,2.50827c0.12569,1.02969 0.3627,1.90369 0.48034,2.49915c0.21259,1.07605 0.27888,1.93484 0.30157,2.996c0.01462,0.68381 0.19919,1.70596 0.42721,2.39316c0.33865,1.0206 0.42279,1.84955 0.42735,2.77167c0.00446,0.90356 -0.09018,1.79703 0.30142,2.61295c0.39226,0.81726 0.9255,1.43762 1.74986,1.453c0.94001,0.01755 1.79996,-0.07895 2.68519,0.01779c0.86739,0.09479 1.66362,0.44791 2.67094,0.69446c0.77677,0.19012 1.40702,0.27512 2.36154,0.52136c0.88443,0.22818 1.39407,0.37872 2.54559,0.7265c0.64003,0.1933 1.31966,0.40332 2.78518,0.88889c0.78586,0.26038 1.59325,0.53995 2.41539,0.82309c0.82571,0.28439 1.64375,0.56784 2.44615,0.83844c0.7737,0.26093 1.50519,0.51904 2.83076,0.90259c0.56343,0.16302 1.53003,0.39948 2.35043,0.51636c0.74622,0.10632 1.92355,0.19171 2.83818,0.29617c0.49413,0.05643 1.52419,0.18597 2.049,0.24841c1.03786,0.1235 2.02084,0.23242 2.91283,0.29062c0.80168,0.05231 1.86894,0.07101 2.81253,0.07294c0.86667,0.00177 1.70256,0 2.849,0c0.61426,0 1.58476,0 2.25456,0c1.36354,0 2.04359,0 2.71339,0c0.9705,0 2.16733,-0.00873 2.72208,0.00909c0.79674,0.0256 2.08208,0.22897 2.83348,0.41824c0.71523,0.18018 1.76282,0.39963 2.49258,0.42349c1.03279,0.03378 1.76212,0.00385 2.81068,0.00385c0.69743,0 1.83704,0 2.62337,0c0.92308,0 1.74815,0 2.67693,0c0.80342,0 1.97421,-0.29947 2.6171,0.3053c0.6411,0.60312 1.043,1.40274 1.61424,1.75513c0.65509,0.40411 1.56297,1.00461 2.09373,1.65524c0.65114,0.79819 1.26628,1.19873 2.17749,1.55499c0.67336,0.26324 0.60924,1.33725 1.04601,2.11639c0.41994,0.74915 0.75945,1.43808 0.83661,2.22549c0.09912,1.01144 0.29919,1.69839 0.57137,2.34488c0.43826,1.04102 1.08282,1.06323 1.10727,0.15085c0.02209,-0.82477 0.18428,-1.8205 1.12921,-1.85172c0.69901,-0.0231 1.46114,0.51447 1.86224,1.28192c0.42418,0.81161 -0.13297,0.7099 -0.79659,0.35556c-0.8445,-0.4509 -1.24373,-1.83484 -1.95213,-1.56354c-0.89131,0.34137 -0.38011,1.70248 0.14815,2.48318c0.34953,0.51657 1.13109,1.46033 1.52365,2.21539c0.21091,0.40564 0.65002,1.23804 1.07692,2.49231c0.24179,0.71042 0.34369,1.655 0.56981,2.40225c0.2681,0.88596 0.92097,1.60406 1.4245,2.44104c0.39049,0.64908 0.62515,1.38278 0.99715,2.27921c0.34105,0.82184 0.6799,1.44345 1.31866,2.40155c0.38942,0.58411 0.85069,1.20358 1.28973,1.90002c0.69157,1.09702 1.08621,1.89746 1.27821,2.31152c0.39883,0.86011 0.77618,1.79849 0.97151,2.2963c0.63821,1.62659 0.85497,2.21802 1.08817,2.82108c0.23744,0.61401 0.47353,1.23584 0.98064,2.46497c0.24966,0.6051 0.75215,1.76544 1.27592,2.81766c0.24484,0.49188 0.73151,1.38333 0.96638,1.78235c0.42065,0.71463 1.29564,1.90738 1.58176,2.45926c0.54524,1.05167 0.61473,1.72275 0.80528,2.40982c0.19618,0.70737 0.65231,1.99796 1.11494,2.71951c0.41815,0.65216 0.98514,1.46912 1.32422,2.14703c0.43454,0.86874 0.97067,1.526 1.68605,2.16537c0.67688,0.60498 1.07133,1.37805 1.39087,2.23575c0.30098,0.80789 1.1888,1.16055 1.84958,1.41995c0.86218,0.33844 1.30226,1.18243 2.30313,1.54529c0.71484,0.25916 1.42529,0.6839 2.31596,0.89331c0.83511,0.19635 1.58957,0.08862 2.61168,0.10498c0.99632,0.01593 1.92673,0.08981 2.70541,0.37152c0.73228,0.26492 1.54129,0.79303 2.351,1.09286c0.89664,0.332 1.62961,0.86118 2.55156,1.08078c0.83162,0.19809 1.77625,0.0405 2.20856,0.7027c0.49556,0.75909 0.82791,1.57394 1.6376,2.02167l0.59828,0.41083l0.86725,0.3732" id="svg_7" stroke-linecap="null" stroke-linejoin="null" stroke-dasharray="null" stroke="#fbfbfb" fill="none"/>
  <path d="m184.95729,278.97441c0.36354,-0.84219 0.80463,-1.5249 1.21481,-2.14474c0.46306,-0.69974 1.34315,-1.56534 1.91154,-2.10471c0.6468,-0.61377 1.38464,-1.26938 2.19102,-1.97052c0.85811,-0.74612 1.7683,-1.51633 2.71411,-2.30896c0.96754,-0.81082 2.93678,-2.44025 3.91566,-3.24728c0.96869,-0.79865 1.9274,-1.5867 2.87564,-2.36282c0.93523,-0.76547 1.858,-1.51764 2.76794,-2.25513c0.89406,-0.72461 2.63661,-2.12506 3.48363,-2.80002c0.83051,-0.6618 1.64874,-1.30984 2.45384,-1.94998c0.79547,-0.63251 1.58298,-1.26001 2.36154,-1.88846c0.77586,-0.62625 2.31729,-1.89392 3.08376,-2.54062c0.76515,-0.6456 1.51772,-1.2923 2.25385,-1.93332c0.71855,-0.6257 1.40974,-1.23627 2.06923,-1.82565c0.62593,-0.55939 1.74725,-1.57828 2.23405,-2.02878c0.44186,-0.40891 0.83995,-0.78305 1.19872,-1.12564c0.32635,-0.31165 0.62166,-0.59885 0.89102,-0.86411c0.24911,-0.2453 0.69872,-0.69485 0.90813,-0.90427c0.20085,-0.20087 0.39314,-0.39316 0.57692,-0.57693c0.17522,-0.1752 0.34187,-0.34186 0.5,-0.5c0.14957,-0.14957 0.42285,-0.42331 0.54715,-0.547c0.11617,-0.1156 0.80504,-0.45297 1.55684,-1.01794c0.65189,-0.48987 0.98529,-1.38123 1.49002,-2.11411c0.39838,-0.57846 0.86456,-1.19992 1.4359,-1.80255c0.91133,-0.96124 1.65453,-1.51279 2.3983,-2.05258c0.36411,-0.26425 1.11124,-0.70407 1.96922,-1.43588c0.66573,-0.56781 1.11847,-1.35385 1.59659,-2.19147c0.44398,-0.77783 1.23691,-1.32088 2.24957,-1.3698c0.73604,-0.03555 1.77986,-0.13304 1.85185,-0.94017c0.08353,-0.93645 0.3548,-1.73018 0.71225,-2.47864c0.3569,-0.74731 0.50891,-1.70261 0.76453,-2.33987c0.30667,-0.76459 0.71854,-1.62477 0.96652,-2.08405c0.82571,-1.52922 1.1913,-2.04947 1.54173,-2.60457c0.3618,-0.57312 0.73738,-1.16008 1.10898,-1.76923c0.37921,-0.62161 1.46764,-2.59406 1.79202,-3.28946c0.32526,-0.6973 0.62109,-1.40399 0.89745,-2.1077c0.27057,-0.68898 0.5157,-1.36421 0.74358,-2.01538c0.21642,-0.61842 0.74248,-2.22972 1.03719,-3.06154c0.23886,-0.67416 0.48312,-1.53032 1.25,-2.25441c0.65753,-0.62083 1.52692,-0.99921 2.09174,-1.8255c0.38858,-0.56848 0.83276,-1.61716 1.19659,-2.27151c0.48413,-0.8707 1.0632,-1.43233 1.62393,-2.0782c0.64355,-0.74126 1.12543,-1.47145 1.31866,-2.42065c0.16397,-0.80537 0.1676,-1.7941 0.42151,-2.5708c0.21005,-0.64256 0.72711,-1.66377 1.33673,-2.34985c0.53955,-0.60724 0.53067,-1.46893 0.94702,-2.22223c0.39673,-0.71779 1.50165,-0.83301 2.32935,-1.48148c0.65958,-0.51675 1.15424,-1.24471 1.50882,-1.69572c0.67484,-0.85838 1.3356,-1.5715 2.03406,-2.27451c0.52039,-0.52377 1.27127,-1.17807 1.68277,-1.98419c0.41995,-0.82271 0.8017,-1.58414 1.49799,-2.00243c0.77689,-0.46671 1.75827,-0.30533 2.67123,-0.30527c0.98563,0.00008 1.88275,0.11275 2.45697,0.60214c0.73419,0.62573 1.6059,0.7955 2.33392,1.17906c0.79425,0.41844 1.48376,0.7829 2.34528,0.7829c0.91681,0 1.83478,0 2.56412,0c1.01651,0 1.91721,-0.15152 2.75668,0.00912c0.8096,0.15494 1.45993,0.92419 2.0513,1.52934c0.6608,0.67619 0.94629,1.55052 1.63232,2.13675c0.61716,0.52736 1.42139,0.93236 2.12949,1.62508c0.591,0.57816 1.24045,1.24045 1.8342,1.83418c0.65698,0.65698 1.20114,1.20116 1.8262,1.82622c0.59033,0.59032 1.39374,1.39372 1.89017,1.89017c0.70541,0.70541 1.38962,1.3896 1.96967,1.96965c0.44104,0.44102 1.23889,1.13954 1.70941,1.99431c0.40845,0.742 0.57568,1.66026 1.28204,2.24359c0.7442,0.61456 1.13269,1.30006 1.58731,2.00142c0.50754,0.78297 1.23404,1.28122 1.83148,1.88034c0.68088,0.68282 1.10907,1.49515 1.47122,2.22223c0.41476,0.83266 0.89459,1.57191 1.2775,2.30769c0.37915,0.72853 0.52704,1.67197 1.11911,2.3624c0.51971,0.60605 1.30624,1.01033 1.73276,1.82564c0.4075,0.77893 1.29419,1.13112 1.73618,1.79601c0.45267,0.68094 1.12479,1.36636 1.80856,2.05014c0.51282,0.51283 1.14575,1.32268 2.05127,1.52934c0.8342,0.19038 1.78476,0.38062 2.02051,1.2057c0.25375,0.88811 0.68176,1.3656 1.59088,1.36752c0.86154,0.00182 1.63806,0.16142 2.45697,0.55327c0.81638,0.39064 1.65732,0.40976 2.155,1.24161c0.37613,0.62868 0.85004,1.5719 1.69116,1.62393c0.85422,0.05284 1.82233,-0.08879 2.54245,0.03076c0.94302,0.15656 1.7128,0.63474 2.56412,0.84558c0.92688,0.22957 1.6409,0.7805 2.50027,0.83305c0.93845,0.05737 1.76276,0.2933 2.47864,0.71225c0.75305,0.44069 1.31754,0.98824 2.26724,0.99715c0.73785,0.00691 1.65567,-0.02711 2.60455,0c0.85574,0.02444 1.41104,0.63881 1.98746,1.33676c0.54861,0.66429 0.74231,1.45636 1.19659,2.06039c0.22958,0.30527 -0.2457,-0.41264 -0.6268,-1.01767c-0.4541,-0.72089 -0.93649,-1.53177 -1.44614,-2.37949c-0.50916,-0.84686 -0.98532,-1.65401 -1.44617,-2.34871c-0.37589,-0.5666 -0.74527,-0.66437 -1.13574,0.17635c-0.33673,0.72501 -0.89398,1.42284 -0.62152,2.19972c0.24442,0.69687 0.77972,1.68309 1.10913,2.32892c0.3746,0.73438 0.79346,1.53632 1.23846,2.39359c0.46439,0.89458 0.93927,1.80956 1.40768,2.73204c0.46149,0.90887 1.30524,2.62964 1.66409,3.41483c0.33136,0.72501 0.62238,1.40234 0.88718,2.03204c0.24619,0.58545 0.46927,1.13498 0.68719,1.64743c0.20612,0.48468 0.60504,1.38965 1.06665,2.19873c0.43555,0.7634 0.90677,1.43307 1.32309,2.05127c0.68842,1.02216 1.18573,1.58374 1.4393,2.63934c0.19742,0.82193 0.07294,1.78232 0.07294,2.63702c0,0.94019 0.00006,1.79486 0,2.65341c-0.00006,0.86911 0.01855,1.7735 -0.36353,2.61496c-0.37796,0.83234 -0.13974,1.72729 -0.50027,2.58575c-0.28082,0.66867 -1.3584,0.52194 -2.29858,0.52194c-0.90356,0 -1.82123,-0.08972 -2.67807,0c-0.90826,0.09509 -1.46652,0.73621 -2.0228,1.34131c-0.53714,0.58429 -0.98907,1.59332 -1.68091,2.07748c-0.67313,0.47107 -1.74564,0.59961 -2.50696,1.04404c-0.62381,0.36417 -0.95389,1.46805 -1.79501,1.52008c-0.85309,0.05276 -1.79489,0 -2.6496,0c-0.85468,0 -1.80447,-0.02905 -2.72134,0.00113c-0.73904,0.02432 -1.55978,0.39926 -2.10544,1.10614c-0.50259,0.65112 -1.12793,1.18503 -1.92419,1.45798c-0.73953,0.25351 -0.94754,1.29129 -1.29929,2.0181c-0.27649,0.57132 -0.77652,1.47214 -1.45529,2.21765c-0.64951,0.71338 -1.20273,1.05591 -2.20383,1.88846c-0.51874,0.4314 -1.01315,0.8898 -1.69717,1.55856c-0.75122,0.73444 -1.36777,1.39377 -2.13531,1.88873c-0.71661,0.46213 -1.48215,0.96887 -2.23575,1.43475c-0.70593,0.43643 -1.32462,0.75085 -2.1369,0.98917c-0.84854,0.24896 -1.13626,0.82562 -1.68204,1.45642c-0.80347,0.92859 -1.30286,1.53458 -1.87466,2.21198c-0.62418,0.73944 -1.28827,1.52515 -1.98462,2.33719c-0.7099,0.82785 -1.42233,1.65472 -2.13846,2.45255c-1.34015,1.49298 -1.9664,2.13785 -2.54929,2.71909c-0.53241,0.53091 -1.03036,1.0007 -1.49103,1.41669c-0.41605,0.37573 -0.7991,0.70367 -1.14487,0.99359c-0.58038,0.48666 -1.22504,1.00897 -2.00684,1.76636c-0.5209,0.50461 -1.23663,1.15884 -1.87921,1.88034c-0.58051,0.65179 -1.04684,1.26315 -1.70938,1.78348c-0.72931,0.57278 -0.44385,1.56168 -0.92877,2.41595c-0.42804,0.75406 -1.41058,0.98721 -1.89288,1.61255c-0.51761,0.67108 -0.98215,1.39627 -1.5567,1.98419c-0.58215,0.59567 -1.31,1.42303 -1.74588,2.10925c-0.38748,0.61005 -1.16113,1.37036 -1.38046,2.3168c-0.19296,0.83264 0.22864,2.20093 1.16965,2.09686c0.69955,-0.07736 0.51489,-1.51431 -0.33276,-1.66949c-0.74432,-0.13626 -1.80371,-0.08456 -2.56412,0.42734c-0.58521,0.39395 -1.03784,1.11502 -1.56693,2.13675c-0.39008,0.75333 -0.6788,1.55435 -0.97095,2.05127c-0.62302,1.05963 -1.28531,1.76593 -1.73105,2.16113c-0.84357,0.74796 -1.73453,1.18628 -2.14133,1.7883c-0.5408,0.80032 -1.02472,1.43228 -1.7272,2.13678c-0.68329,0.68521 -1.28894,1.26114 -1.70526,1.7782c-0.66208,0.82227 -0.9794,1.55252 -1.44388,2.39545c-0.43408,0.78775 -0.78394,1.25476 -1.52124,2.10269c-0.6033,0.69382 -1.28281,1.41089 -1.60471,1.79132c-0.62347,0.73682 -1.34601,1.77591 -1.59015,2.40741c-0.30072,0.77792 -0.56171,1.83823 -1.24973,2.39487c-0.7428,0.60098 -1.49661,0.94812 -2.03305,1.72763c-0.49365,0.71738 -0.52838,1.66693 -1.02365,2.34814c-0.52921,0.72791 -1.37869,1.09955 -1.92563,1.92535c-0.48257,0.72864 -0.44766,1.63431 -0.85999,2.46085c-0.34045,0.68246 -1.40308,0.96255 -1.86139,1.71353c-0.43228,0.70834 -0.57956,1.64346 -0.92877,2.56409c-0.29089,0.76694 -0.82443,1.55768 -1.55084,2.04672c-0.68848,0.4635 -1.29129,0.95383 -2.22238,0.9584c-0.79999,0.00391 -1.66992,0.04446 -2.67807,0c-0.82748,-0.0365 -1.56186,-0.66489 -2.36465,-0.84558c-0.86661,-0.19504 -1.57542,-0.53851 -2.34816,-1.11566c-0.73474,-0.54874 -1.7103,-0.50064 -2.43817,-0.84558c-0.83305,-0.39478 -1.39635,-1.07913 -2.14516,-1.42166c-0.88971,-0.40698 -1.55721,-0.70313 -2.50099,-0.89059c-0.84863,-0.16858 -1.60925,-0.45465 -2.32579,-0.81497c-0.7975,-0.40103 -1.74602,-0.04886 -2.68619,-0.04886c-0.85469,0 -1.74794,0.04745 -2.55156,-0.24387c-0.81177,-0.29425 -1.61108,-0.83716 -2.44231,-1.16025c-0.8609,-0.33463 -1.69884,-0.22574 -2.61681,-0.35413c-0.86452,-0.12091 -1.53641,-0.46945 -2.56026,-0.97681c-0.68497,-0.33942 -1.55521,-0.73917 -2.22223,-1.12891c-0.87849,-0.51328 -1.52605,-1.14304 -2.10014,-1.5611c-0.79605,-0.57971 -1.48787,-0.90353 -2.37051,-1.16754c-0.93423,-0.27945 -1.80383,-0.60428 -2.36694,-1.11752c-0.7352,-0.67007 -1.3495,-1.44376 -2.26724,-1.64273c-0.72264,-0.15668 -1.72609,-0.04758 -2.41994,-0.53433c-0.63165,-0.44312 -1.6078,-0.94443 -2.32024,-1.4678c-0.73085,-0.5369 -1.02707,-1.29498 -1.5574,-1.9285c-0.59819,-0.71457 -0.99301,-1.39798 -1.67322,-2.08276c-0.61078,-0.61487 -1.22672,-1.22144 -1.87022,-1.87021c-0.55614,-0.5607 -1.08432,-1.15115 -1.5795,-2.07068c-0.41817,-0.77652 -0.79872,-1.65509 -1.21481,-2.4205c-0.43771,-0.80521 -0.76237,-1.36963 -0.99487,-2.17435c-0.19072,-0.66013 -0.43074,-1.8967 -0.59828,-2.85541c-0.08725,-0.49927 -0.24574,-1.5033 -0.42735,-2.45514c-0.16148,-0.84631 -0.43715,-1.82098 -0.653,-2.53674c-0.32126,-1.06528 -0.31573,-1.77518 -0.61537,-2.77951c-0.24721,-0.82858 -0.52728,-1.70798 -0.80128,-2.49814c-0.27179,-0.78378 -0.78958,-1.5878 -1.14745,-2.42947c-0.3396,-0.79874 -0.65341,-1.71497 -1.09972,-2.27466c-0.69107,-0.86664 -1.05339,-1.58179 -1.4735,-2.37152c-0.39201,-0.73694 -1.02115,-1.16235 -1.73105,-1.71851c-0.75111,-0.58847 -1.46596,-1.13504 -2.09915,-1.25925c-1.12317,-0.22034 -1.69958,-0.36426 -2.61766,-0.61313c-0.90805,-0.24612 -1.72183,-0.5311 -2.65755,-0.78061c-0.94205,-0.25119 -1.78981,-0.43237 -2.58006,-0.76581c-0.78668,-0.33194 -1.68236,-0.6965 -2.39374,-0.8822c-1.07083,-0.27951 -1.79997,-0.30069 -2.73119,-0.30527c-0.90355,-0.00443 -1.91354,0.32742 -2.68932,-0.00912c-0.75266,-0.32654 -1.16075,-1.14551 -1.8587,-1.72192c-0.66429,-0.54861 -1.32339,-1.02084 -1.78062,-1.73279c-0.46686,-0.72693 -0.69516,-1.93225 -0.05754,-2.44614c0.67787,-0.54633 1.63136,-0.56665 2.49231,-0.85471c0.78548,-0.26279 1.73601,0.02585 2.6111,-0.38205c0.56554,-0.26361 1.53035,-0.96658 2.0681,-1.24188c0.81912,-0.41937 1.75441,-0.83319 2.66666,-1.01083c0.88177,-0.17172 1.33434,-0.80811 2.21654,-0.86609l0.57436,-0.51282l0.67464,-0.67465" id="svg_9" stroke-linecap="null" stroke-linejoin="null" stroke-dasharray="null" stroke="#fbfbfb" fill="none"/>
  <path d="m184.10259,331.96586c-0.99715,0 -1.74794,0.07675 -2.73505,-0.18933c-0.7049,-0.19 -1.7094,-0.75085 -2.39316,-1.09274c-0.85471,-0.42734 -1.50858,-0.85358 -2.5641,-1.13959c-0.67018,-0.18161 -1.71585,-0.26614 -2.38405,-0.50598c-0.9017,-0.32364 -1.71738,-0.4906 -2.64615,-0.49118c-0.95271,-0.00058 -1.78903,-0.00009 -2.74759,0c-0.85469,0.00009 -1.64488,0.29971 -2.47862,0.71225c-0.80751,0.39954 -1.68758,0.39966 -2.32024,1.14188c-0.5089,0.59702 -0.38127,1.75781 -0.68903,2.40158c-0.42574,0.89059 -1.13998,1.52991 -1.26311,2.41098c-0.11829,0.84644 0.18056,1.93146 -0.14359,2.73502c-0.3103,0.76923 -0.71169,1.53848 -0.71225,2.39319c-0.00056,0.85468 -0.0705,1.88324 0,2.73502c0.07146,0.86356 0.69865,1.37125 1.26424,2.13678c0.52179,0.70627 0.85089,1.60962 1.29987,2.27917c0.46262,0.68991 1.04678,1.48001 1.46552,2.24957c0.43599,0.8013 0.8629,1.79068 0.19046,2.29105c-0.68719,0.51132 -1.66658,0.21252 -2.60754,0.44629c-0.7805,0.19391 -0.123,0.69235 0.702,0.94586c0.97502,0.29962 1.40833,0.81479 2.23589,1.3812c0.5321,0.3642 1.55981,0.90857 2.42964,1.23306c0.7251,0.27048 1.46617,0.93088 2.24957,1.32306c0.76337,0.38217 1.73219,0.2439 2.71809,0.2439c0.71025,0 1.73204,0 2.36794,0c1.09402,0 2.00912,0 2.95044,0c0.82507,0 1.64304,-0.05231 2.40456,-0.49118c0.66177,-0.38141 1.54399,-0.32104 2.55156,-0.07861c0.77745,0.18707 1.6781,0.44913 2.15456,0.58759c0.9588,0.27863 1.43866,0.36954 2.95087,0.93604c0.79976,0.29959 1.40602,0.6293 2.24501,1.31342c0.52679,0.42953 1.33452,1.19189 2.03348,1.5433c0.93466,0.46994 1.8891,0.20126 2.43262,-0.27322c0.61333,-0.53543 1.50153,-1.18649 1.78575,-1.99887c0.31024,-0.88675 0.63173,-1.44977 1.18405,-2.15286c0.44753,-0.5697 0.78474,-1.67282 1.00783,-2.35925c0.32735,-1.00729 0.4249,-1.79462 0.44516,-2.66736c0.01985,-0.85504 0.62691,-1.55444 0.8369,-2.47864c0.19333,-0.85083 -0.27036,-1.68039 -0.53548,-2.48248c-0.27682,-0.83752 -0.28726,-1.75452 -0.30257,-2.80185c-0.00995,-0.68091 -0.15463,-1.69012 -0.49002,-2.50598c-0.30391,-0.73929 -0.31577,-1.55814 -0.66881,-2.54773c-0.23668,-0.66339 -0.85275,-1.55063 -1.48959,-2.14044c-0.72806,-0.67432 -1.30524,-1.11569 -1.66895,-1.87595c-0.35406,-0.74008 -1.11943,-1.2561 -1.83533,-1.70142c-0.77855,-0.48428 -1.28206,-1.20911 -1.88034,-1.79828l-0.7654,-0.47693l-0.62378,-0.53619l-0.66325,-0.3624" id="svg_10" stroke-linecap="null" stroke-linejoin="null" stroke-dasharray="null" stroke="#fbfbfb" fill="none"/>
  <path d="m275.55559,208.88891c0.30142,-1.22491 0.50879,-2.11568 0.61197,-2.81253c0.16779,-1.13329 0.19724,-1.92952 0.24274,-2.7252c0.04453,-0.77867 0.10681,-1.87648 0.30911,-2.83762c0.13095,-0.62207 0.33948,-1.25151 0.82022,-2.70512c0.13834,-0.41832 0.43295,-1.30058 0.72934,-2.21866c0.14865,-0.46048 0.573,-1.79771 0.80231,-2.62451c0.21451,-0.77351 0.39813,-1.52106 0.51282,-2.26666c0.17535,-1.14003 0.19812,-1.95596 0.26282,-2.82108c0.06989,-0.9344 0.0957,-1.43555 0.36053,-3.06012c0.09586,-0.588 0.22092,-1.1848 0.47635,-2.38861c0.12589,-0.59325 0.28152,-1.16466 0.56979,-2.74216c0.15631,-0.85533 0.17905,-1.57364 0.32608,-2.39017c0.1915,-1.06343 0.67371,-1.88284 0.81354,-2.6134c0.19281,-1.00743 0.46619,-1.71698 0.61197,-2.35028c0.2327,-1.01091 0.23227,-1.9053 0.24158,-2.78746c0.01083,-1.02444 -0.0253,-1.87596 0.19046,-2.89673c0.14529,-0.68736 0.45633,-1.56812 0.92181,-2.37051c0.39496,-0.68082 0.87564,-1.53915 1.08032,-2.18347c0.34427,-1.08377 0.48587,-1.91339 0.97934,-2.78676c0.38248,-0.67691 0.95364,-1.56248 1.33334,-2.19188c0.44992,-0.74579 0.88312,-1.39067 1.47876,-2.21567c0.36234,-0.50185 0.77695,-1.05121 1.2218,-1.65256c0.47485,-0.64191 0.97226,-1.31833 1.47565,-2.0295c0.51639,-0.72952 1.04797,-1.46642 2.00342,-3.01311c0.47021,-0.76117 0.8981,-1.53192 1.29871,-2.29999c0.39359,-0.75459 0.75571,-1.50751 1.09103,-2.25386c0.32806,-0.73013 0.63803,-1.44847 1.17151,-2.85356c0.25519,-0.67215 0.48251,-1.32936 0.70001,-1.96281c0.20865,-0.6076 0.58322,-1.74301 0.77377,-2.25812c0.49701,-1.34355 0.81189,-2.05701 1.35742,-2.79472c0.42136,-0.56979 1.31921,-1.21701 1.6235,-2.09103c0.25323,-0.72742 0.17761,-1.89453 0.7547,-2.53348c0.61539,-0.68134 1.59238,-0.24426 2.45868,-0.65939c0.80304,-0.38483 1.44348,-0.68745 2.11655,-1.29359c0.64774,-0.58333 0.86819,-1.6037 1.33105,-2.2473c0.66177,-0.9202 1.36655,-1.36681 1.80624,-1.74017c0.91312,-0.77541 1.50809,-1.45587 2.02396,-2.13902c0.59256,-0.7847 1.16855,-1.30557 1.47464,-2.20755c0.24753,-0.72939 0.35886,-1.77078 0.59485,-2.42949c0.33231,-0.92751 0.36356,-1.99658 0.36356,-2.73761c0,-0.87949 0,-1.49715 0,-2.68803c0,-0.79102 0,-1.8416 0,-2.62108c0,-0.9037 0,-1.77649 0,-2.58348c0,-1.04273 0.00623,-1.85415 -0.00116,-2.87977c-0.00433,-0.59946 -0.01932,-1.57423 -0.1413,-2.58917c-0.08234,-0.68519 -0.29202,-1.69426 -0.45969,-2.34431c-0.31787,-1.23244 -0.50406,-1.79645 -0.76538,-2.60384c-0.33557,-1.03682 -0.62119,-1.79651 -0.82394,-2.57322c-0.2655,-1.01707 -0.31876,-1.79951 -0.39429,-2.59487c-0.10812,-1.1386 -0.27606,-2.05861 -0.4057,-2.66866c-0.1795,-0.8447 -0.38263,-1.89383 -0.47977,-2.53818c-0.22424,-1.4873 -0.32593,-2.03946 -0.43307,-2.66553c-0.11737,-0.6859 -0.24329,-1.41852 -0.36923,-2.1859c-0.12936,-0.78818 -0.25815,-1.58456 -0.3692,-2.3782c-0.21268,-1.51972 -0.3443,-2.89317 -0.3916,-3.52393c-0.04483,-0.59776 -0.10272,-1.71047 -0.13504,-2.23135c-0.09088,-1.46478 -0.19791,-2.3854 -0.26025,-2.8282c-0.11896,-0.84489 -0.29135,-1.61396 -0.44943,-2.91239c-0.09753,-0.80125 -0.10226,-1.71538 -0.10385,-2.98846c-0.00067,-0.54444 -0.00668,-1.14202 0.01822,-2.43419c0.01279,-0.66421 0.02457,-1.32101 0.0795,-1.95128c0.13965,-1.60229 0.17889,-2.59319 1.05768,-2.98347c0.78278,-0.34765 1.36346,0.69727 0.57794,0.81509c-0.91153,0.13672 -1.48706,-0.03126 -2.21738,-0.14544c-1.51773,-0.23728 -2.1423,-0.41787 -2.83334,-0.58504c-0.74579,-0.18042 -1.53561,-0.38409 -2.36282,-0.60384c-0.85831,-0.22802 -1.73819,-0.46881 -2.63205,-0.71923c-1.80292,-0.5051 -2.694,-0.76501 -3.5715,-1.01881c-0.85721,-0.24792 -1.6875,-0.48972 -2.4859,-0.71923c-0.75946,-0.21832 -1.47382,-0.42384 -2.13974,-0.60384c-1.1525,-0.31152 -1.63364,-0.42643 -2.43518,-0.59658c-0.65912,-0.13992 -1.58978,-0.32664 -2.68521,-0.70271c-0.44312,-0.15213 -1.39413,-0.53066 -1.8923,-0.73219c-1.00369,-0.40604 -1.48376,-0.62736 -2.81467,-1.14188c-1.05597,-0.40824 -1.64993,-0.63931 -2.72308,-0.83462c-0.76709,-0.1396 -1.58429,-0.13046 -2.70654,-0.42735c-0.62469,-0.16525 -1.57773,-0.58932 -2.25455,-0.82166c-1.01218,-0.34744 -1.70132,-0.47433 -2.69559,-0.58504c-0.62064,-0.06911 -1.94177,-0.25808 -2.56412,-0.44515c-1.06281,-0.31947 -1.78488,-0.39753 -2.88461,-0.5698c-0.54608,-0.08554 -1.43857,-0.30489 -2.37949,-0.46951c-0.90396,-0.15816 -1.75809,-0.22405 -2.5943,-0.23889c-1.16962,-0.02075 -1.79486,-0.00385 -2.75385,-0.00385c-0.63361,0 -1.83173,0.01311 -2.68903,-0.01781c-0.58932,-0.02126 -1.90051,-0.16145 -2.63248,-0.28747c-0.75259,-0.12957 -1.49652,-0.25368 -2.76511,-0.6349c-0.76721,-0.23056 -1.46277,-0.54391 -2.58804,-0.85456c-0.67374,-0.18599 -1.39592,-0.33698 -2.11795,-0.4641c-1.27315,-0.22415 -2.03717,-0.2711 -2.74872,-0.35028c-1.11888,-0.12452 -1.80211,-0.25909 -2.55014,-0.38234c-0.78131,-0.12872 -1.95741,-0.30038 -2.71196,-0.35442c-1.07941,-0.07731 -1.77849,-0.07101 -2.80798,-0.07294c-1.02563,-0.00191 -1.7094,0 -2.39316,0c-1.36766,0 -2.05513,0 -2.75285,0c-1.08076,0 -2.2225,0 -3.01482,0c-0.79572,0 -1.57436,-0.00095 -2.66537,0c-0.65413,0.00057 -1.56882,-0.00735 -2.47978,0.07294c-1.00725,0.08878 -1.75502,0.22519 -2.5594,0.39003c-0.86032,0.17631 -1.30894,0.27618 -2.69957,0.66638c-0.96324,0.27029 -1.43974,0.42677 -2.37749,0.72934c-0.89241,0.28794 -2.08305,0.67683 -2.75713,0.92066c-0.60948,0.22047 -1.46193,0.56102 -2.45656,1.29929c-0.55055,0.40865 -1.08176,0.93114 -1.68205,1.46667c-0.99623,0.88875 -1.36067,1.19363 -2.10141,1.80855c-0.72256,0.59984 -1.40422,1.13534 -2.20984,1.8225c-0.60066,0.51234 -1.15674,1.05607 -1.89615,1.79231c-0.68181,0.67889 -1.07985,1.07663 -1.52023,1.50199c-0.97745,0.94411 -1.51892,1.44817 -2.09459,1.96695c-1.21976,1.09923 -1.87938,1.6512 -2.55385,2.21425c-0.6842,0.57117 -1.37985,1.13869 -2.07564,1.70641c-0.69112,0.56391 -1.37512,1.11718 -2.03717,1.66795c-1.26227,1.05009 -1.84151,1.55668 -2.38405,2.04672c-0.51343,0.46375 -0.98788,0.91064 -1.41924,1.34231c-0.40144,0.40173 -1.15184,1.09553 -1.77806,2.08518c-0.44186,0.69829 -0.50648,1.37466 -1.00555,2.19189c-0.44977,0.73651 -1.23987,1.51817 -1.63234,2.24003c-0.30101,0.55365 -0.67708,1.66324 -0.98874,2.3537c-0.41641,0.92254 -0.88043,1.50205 -1.46268,2.24003c-0.6692,0.84819 -1.07408,1.53603 -1.49786,2.39701c-0.33418,0.67895 -0.66928,1.53329 -0.73862,2.27692c-0.06978,0.74852 -0.02705,1.82565 -0.03304,2.77151c-0.00334,0.52851 -0.0251,1.65427 -0.05927,2.23362c-0.06795,1.15208 -0.18852,2.24156 -0.42393,3.19431c-0.21069,0.85268 -0.51355,1.58741 -0.73846,2.26666c-0.30022,0.90669 -0.44844,1.75484 -0.47777,2.55228c-0.04721,1.28391 -0.00769,2.03732 -0.00769,2.75142c0,1.04587 0,1.8792 0,2.82964c0,0.88575 0,1.76182 0,2.61538c0,0.96182 -0.00751,1.97842 0.00385,2.76682c0.00839,0.58272 0.06055,1.62822 0.1386,2.48788c0.09248,1.01863 0.15727,1.5769 0.32051,2.75998c0.08487,0.61507 0.17804,1.23741 0.29488,1.85768c0.34258,1.81873 0.50514,2.3907 0.6624,2.95229c0.30972,1.10605 0.48717,1.64941 0.87607,2.72864c0.39719,1.10222 0.6257,1.65717 1.07436,2.77948c0.22156,0.55423 0.45276,1.09074 0.84558,2.12308c0.50111,1.31691 0.71028,2.00902 0.87636,2.80099c0.1971,0.93994 0.40897,1.66371 0.73546,2.2869c0.58759,1.12155 1.01411,1.78334 1.4369,2.50299c0.42279,0.71967 0.99976,1.70795 1.30826,2.26097c0.50343,0.90247 0.97173,1.72714 1.38632,2.40327c0.44699,0.72897 0.77843,1.21507 1.24957,2.25883c0.34145,0.75642 0.58846,1.5372 0.9265,2.56183c0.24249,0.735 0.59264,1.76218 0.68106,2.64415c0.08064,0.8044 0.26997,1.72694 0.80142,2.41696c0.57164,0.74222 1.19168,1.24733 1.86224,1.81296c0.69453,0.58585 1.03125,0.88585 2.32764,1.79088c0.49437,0.34512 1.24619,0.89903 2.2775,1.06311c0.8331,0.13254 1.72092,0.08749 2.49687,0.58562c0.73599,0.47247 1.16122,0.96263 2.06154,1.85384c0.60562,0.59949 1.13774,1.1188 1.83362,1.83377c0.56049,0.57585 1.15964,1.32828 1.56923,1.94174c0.41905,0.62762 1.21429,1.92526 0.56795,2.33205c-0.78078,0.49139 -1.78204,-0.07426 -2.63177,0.01781c-0.90718,0.09828 -1.16954,0.98004 -1.12535,1.83405c0.03749,0.72446 0.34586,2.01521 0.49658,2.49402c0.32234,1.02393 0.5285,1.54494 0.96724,2.58475c0.21635,0.51276 0.88194,1.92151 1.09615,2.33006c0.38846,0.74094 0.95351,1.68918 1.29929,2.27849c0.52055,0.88716 0.86568,1.53526 1.25114,2.24287c0.43312,0.79507 0.66721,1.2359 1.53975,2.71867c0.32751,0.55656 0.67581,1.12709 1.03589,1.70512c0.71918,1.15451 1.07613,1.70906 1.42906,2.23361c0.91437,1.35898 1.16969,1.72647 1.88918,2.56624c0.40141,0.46852 1.24696,1.30722 1.70456,1.75414c0.69733,0.68105 1.58884,1.49577 2.25612,1.93547c0.51309,0.3381 1.22359,0.70264 1.6624,0.93732c1.10683,0.59193 1.79356,0.95554 2.55612,1.36639c0.82524,0.44463 1.6958,0.91747 2.5936,1.41409c0.91304,0.50505 1.82399,1.01314 2.70897,1.5295c1.66074,0.96899 2.39221,1.43362 3.05983,1.86894c0.61192,0.399 1.16164,0.77617 1.65642,1.12436c0.4464,0.31413 0.81151,0.64713 1.78062,1.26425c0.77498,0.4935 1.56363,0.72072 2.27921,0.99715c0.94955,0.36682 1.87347,0.52328 2.5641,0.8725c0.86728,0.43854 1.36427,1.10849 2.13675,1.6738c0.70509,0.51601 1.59836,0.55919 2.20854,1.05711c0.61043,0.49814 1.48544,0.99326 1.98334,1.39816c0.8304,0.67531 1.66725,1.06929 2.52948,1.38702c0.81093,0.29883 1.48047,0.96513 1.99658,1.47466c0.69714,0.68826 1.38562,1.19745 2.17664,1.65469c0.78592,0.4543 1.4697,0.85605 2.16071,1.34587c0.92078,0.65269 1.48352,1.20865 2.03302,1.63875c0.89493,0.70045 1.69022,1.11485 2.5755,1.45755c0.68082,0.26355 1.51123,0.5598 2.16296,1.15555c0.65079,0.59489 1.41812,0.90733 2.24503,1.20001c1.00363,0.35522 1.6745,0.71773 2.42963,1.20569c0.69763,0.45082 1.5676,0.91826 2.16141,1.45299c0.7113,0.64055 1.5162,1.03349 2.01468,1.71326c0.5239,0.71442 0.59497,1.56592 0.84045,2.47478c0.22568,0.83551 0.74149,1.56694 1.12534,2.30769c0.41797,0.80659 0.69543,1.75107 1.07523,2.45699c0.44974,0.83592 0.92654,1.35178 1.44388,2.11411c0.59314,0.87404 1.31055,1.29787 1.45413,2.17992l0.37149,0.65413l0.8916,0.04857" id="svg_13" stroke-linecap="null" stroke-linejoin="null" stroke-dasharray="null" stroke="#fbfbfb" fill="none"/>
  <path d="m206.32481,72.13678c1.59958,0 2.6097,0 3.43661,0c0.57977,0 1.6568,-0.03954 2.5463,0.01781c1.14403,0.07375 1.68179,0.22083 2.5463,0.40955c0.82779,0.18069 1.98549,0.41196 2.85684,0.42735c0.79047,0.01396 1.79459,0 2.48177,0c0.93219,0 1.98462,0 2.75841,0c1.05241,0 1.74985,0 2.44728,0c1.04858,0 1.951,0 2.96867,0c0.8923,0 1.71738,0 2.57321,0c0.86696,0 1.8849,0 2.5208,0c1.09402,0 2.00912,0.00063 2.9493,0c0.85469,-0.00057 1.6122,-0.43594 2.47878,-0.75085c0.86226,-0.31334 1.62378,-0.10384 2.57649,-0.10384c0.92763,0 1.78233,0 2.7225,0c0.85471,0 1.70941,0 2.64958,0c0.85469,0 1.7094,0 2.64955,0c0.85471,0 1.70941,0 2.6496,0c0.85471,0 1.70938,0 2.64957,0c0.85471,0 1.79486,0 2.64957,0c0.85471,0 1.88034,0 2.73505,0c0.85471,0 1.86691,0.12724 2.5463,-0.01781c0.87857,-0.18757 1.60828,-0.8215 2.43945,-0.83689c0.82492,-0.01527 1.85187,0 2.63477,0.24274l0.49915,0.61196" id="svg_14" stroke-linecap="null" stroke-linejoin="null" stroke-dasharray="null" stroke="#fbfbfb" fill="none"/>
  <path d="m205.47012,103.76071c2.39316,0 3.41879,0 4.17549,0c0.83076,0 2.09232,0 2.63789,0c0.60541,0 1.2621,0 2.69516,0c0.75926,0 1.53561,0 2.32051,0c1.56125,0 2.32166,0 3.06325,0c0.72108,0 1.41994,0 2.09486,0c1.27122,0 1.86411,0 3.452,0c0.46454,0 1.30898,0 2.40257,0c0.94743,0 1.81026,0 2.61923,0c1.03476,0 1.7963,0 2.7319,0c0.89203,0 1.89374,0 2.71881,0c0.86153,0 1.77449,0 2.67805,0c0.85855,0 1.72763,0 2.60455,0c0.87807,0 1.82849,0 2.66183,0c1.04472,0 1.74216,0 2.43959,0c1.04858,0 1.951,0 2.9778,0c0.68375,0 1.70938,0 2.73502,0c0.68378,0 1.70941,0 2.5463,0c0.97052,0 1.81268,0 2.754,0c0.82507,0 1.71738,0 2.56284,0c0.82407,0 1.8497,0 2.74429,0c0.91852,0 1.70413,0 2.55499,0c0.85471,0 1.88715,0.05747 2.56409,-0.04886c1.04071,-0.16347 1.8074,-0.63604 2.53336,-1.1386l0.79999,-0.47308l0.85471,-0.05271l0.85471,-0.29758" id="svg_15" stroke-linecap="null" stroke-linejoin="null" stroke-dasharray="null" stroke="#fbfbfb" fill="none"/>
  <path d="m220.00003,121.70944c2.35271,0.04886 3.11398,0.34882 3.81339,0.55327c1.02884,0.30075 1.78,0.27979 2.58546,0.37321c1.19733,0.13889 1.8167,0.30229 2.73804,0.48149c1.08029,0.21011 1.96184,0.16335 2.81084,0.49074c0.76649,0.29558 1.52232,0.86644 2.20825,1.07492c0.78096,0.23737 1.98506,0.377 2.62692,0.42351c0.99832,0.07233 2.02161,0.15689 2.70998,0.26439c0.72487,0.1132 1.51358,0.26514 2.41026,0.36923c1.02928,0.11949 2.21527,0.173 2.84799,0.19388c0.64705,0.02135 1.29939,0.0352 2.58177,0.04501c0.61124,0.00468 2.21468,0.00385 2.65456,0.00385c1.06668,0 1.82565,0 2.90073,0c0.85995,0 1.64557,0 2.6712,0c0.72879,0 1.78262,0.05598 2.47479,-0.03561c1.15649,-0.15303 1.74707,-0.56964 2.47479,-1.1198c0.8587,-0.64919 1.543,-0.95155 2.43362,-1.36752c0.76489,-0.35724 1.0596,-1.14331 1.84372,-1.69815c0.77594,-0.54906 1.63931,-0.74117 2.47864,-0.91096c0.89185,-0.18044 1.59543,-0.85086 2.30771,-1.27821c0.71225,-0.42734 1.35663,-0.99033 2.12308,-1.45184c0.71088,-0.42807 1.53131,-0.86891 2.2222,-1.29688c0.81326,-0.50377 1.6376,-0.24333 2.59033,-0.24274c0.92648,0.00058 1.59088,0.45473 2.21353,0.89972c0.71259,0.50928 1.12891,1.29175 1.81952,1.80684l0.14359,0.88205l0.3624,0.66325" id="svg_16" stroke-linecap="null" stroke-linejoin="null" stroke-dasharray="null" stroke="#fbfbfb" fill="none"/>
  <path d="m149.05986,210.59833c-1.42906,0.49117 -2.36537,0.80922 -3.23533,0.84558c-0.895,0.0374 -1.71304,-0.01884 -2.55043,0.08205c-1.03214,0.12434 -1.61346,0.30937 -2.54914,0.48035c-1.21502,0.22203 -1.78265,0.27284 -2.80898,0.29758c-0.88878,0.02142 -1.83846,0.00385 -2.70228,0.00385c-0.85471,0 -1.88148,0 -2.59487,0c-1.01296,0 -1.69117,0 -2.55955,0c-1.0849,0 -1.97607,0 -2.7943,0c-0.99715,0 -1.57394,-0.33913 -2.38176,-0.78177c-0.77831,-0.42647 -1.66765,-0.0134 -2.66097,-0.3168c-0.70594,-0.21562 -1.53157,-0.71114 -2.24003,-1.03818c-0.97014,-0.44785 -1.65324,-0.67809 -2.3537,-0.94017c-1.11767,-0.41818 -1.85064,-0.79474 -2.73832,-1.09288c-0.85991,-0.2888 -1.50485,-0.72977 -2.28561,-1.21481c-0.72432,-0.44998 -1.43548,-0.99269 -2.28091,-1.53833c-0.55833,-0.36034 -1.57081,-0.49748 -2.45926,-0.77051c-0.71908,-0.22098 -0.87608,-1.11433 -1.29687,-1.78006c-0.48175,-0.76218 -0.24274,-1.72307 -0.24274,-2.66553c0,-0.96637 0,-1.55997 0,-2.33047c0,-1.34245 -0.00345,-2.15504 0.00912,-3.02223c0.00637,-0.43921 -0.01604,-1.3046 0.13334,-2.45128c0.11594,-0.89 0.53965,-1.67441 0.69444,-2.70656c0.12477,-0.83192 0.06612,-1.73412 0.44516,-2.5463c0.37271,-0.79861 0.41863,-1.72725 0.42735,-2.58191c0.0089,-0.87263 0.28496,-1.67934 0.55328,-2.43361c0.33787,-0.94978 0.30142,-1.83989 0.30142,-2.78006c0,-0.85471 0,-1.79488 0,-2.64957c0,-0.90356 0.08972,-1.82121 0,-2.67807c-0.0951,-0.90829 -0.83931,-1.36937 -0.8547,-2.20285c-0.01693,-0.91722 0,-1.79942 0,-2.64046c0,-0.98903 0,-1.79601 0,-2.64957c0,-0.85471 0,-1.87123 0,-2.76353c0,-0.82507 -0.00006,-1.75385 0,-2.55727c0.00007,-0.98575 0.02277,-1.78015 0.38177,-2.58234c0.33107,-0.73978 0.87751,-1.57521 1.32763,-2.25c0.43236,-0.64816 1.15798,-1.58775 1.79487,-2.24004c0.5911,-0.60538 1.19658,-1.19658 1.88034,-1.88034c0.59829,-0.59828 1.14188,-1.14188 1.86667,-1.86665c0.59032,-0.59032 1.31622,-1.24321 1.79943,-1.8302c0.57421,-0.69754 0.88822,-1.43391 1.85883,-2.20044c0.48114,-0.37997 1.36177,-0.82831 1.93946,-1.12378c1.01729,-0.52032 1.8261,-0.88315 2.63362,-1.43932c0.60311,-0.41539 1.28389,-1.13521 1.98405,-1.50883c0.80346,-0.42876 1.64922,-0.44939 2.44786,-0.84045c0.82829,-0.40558 1.6216,-0.86322 2.47977,-0.89972c0.82433,-0.03506 1.68661,0 2.59957,0c0.90356,0 1.84373,0 2.70755,0c0.91852,0 1.70413,0 2.72208,0c0.78561,0 1.70412,0 2.56795,0c0.88547,0 1.75442,0 2.76353,0c0.78575,0 1.70256,0 2.68817,0c0.87308,0 1.72877,-0.04105 2.58248,0c0.75932,0.03651 1.71583,0.41121 2.54559,0.75099c0.80798,0.33086 1.32803,0.93909 2.0698,1.32195c0.86655,0.44725 1.57884,0.87355 2.39316,1.27408c0.81794,0.40231 1.34206,0.84666 1.88034,1.62279c0.57185,0.82454 1.31449,1.24413 2.05128,1.62508c0.809,0.41827 1.47548,0.78044 1.90199,1.61024c0.39431,0.76715 1.34506,0.84587 2.0973,1.21439c0.81694,0.40021 1.3204,1.10739 1.7272,1.70941c0.54079,0.80031 1.11083,1.51981 1.7094,2.11894c0.68728,0.68793 1.17228,1.19611 1.83989,1.83604c0.58363,0.55945 1.62794,1.02489 2.34814,1.52806c0.67591,0.47223 1.19409,1.34621 1.43932,2.09344c0.26751,0.81512 0.79688,1.6546 1.29573,2.34187c0.52665,0.72556 0.89628,1.36913 1.09287,2.38976c0.1309,0.67957 0.09832,1.63951 0.40897,2.67178c0.23884,0.79364 0.63029,1.60333 0.89131,2.27979c0.33597,0.87068 0.8125,1.66626 1.19659,2.35327c0.47948,0.85764 0.61837,1.76569 0.95384,2.61539c0.3374,0.8546 0.92194,1.41422 0.9265,2.34302c0.00315,0.64229 0,1.7641 0,2.55043c0,0.92308 0,1.92023 0,2.77493c0,0.75668 0,1.7094 0,2.66324c0,0.89801 0.00227,1.61026 0,2.67252c-0.00192,0.8997 -0.44351,1.49036 -0.9265,2.18675c-0.46599,0.67189 -1.07507,1.39322 -1.59259,2.13176c-0.43919,0.62675 -0.92319,1.26097 -1.26325,2.16225c-0.32811,0.8696 -0.45451,1.65521 -1.0131,2.37152c-0.58677,0.75243 -1.05573,1.38705 -1.37664,2.32591c-0.25533,0.74698 -0.57432,1.67099 -1.02906,2.26781c-0.51369,0.67418 -1.47953,0.77924 -2.1594,1.17778c-0.70778,0.4149 -1.42549,0.81769 -1.93989,1.49332c-0.55379,0.72739 -1.52972,0.64137 -2.37479,0.76936c-0.81042,0.12276 -1.30004,0.82921 -2.22222,0.85471c-0.85493,0.02364 -1.62393,0.42735 -2.47863,0.8369l-0.8369,0.0356" id="svg_18" stroke-linecap="null" stroke-linejoin="null" stroke-dasharray="null" stroke="#fbfbfb" fill="none"/>
  <path d="m120.00003,183.2479c0.18932,0.94003 0.90281,1.45049 1.7094,1.85185c0.64977,0.32333 1.54406,0.74815 2.26724,1.31894c0.63461,0.50089 1.24957,1.20071 1.83419,1.78532c0.68491,0.68491 1.27702,1.28841 2.05128,1.80969c0.6581,0.44308 1.26461,1.01244 2.05242,1.41766c0.74996,0.38576 1.78503,0.34444 2.05015,1.04843c0.33138,0.87994 0.7748,1.60114 1.45798,1.87537c0.9056,0.36351 0.98268,0.9726 1.24971,1.8557c0.22137,0.7321 0.97082,1.55698 1.71624,1.51794c1.05949,-0.05547 1.49701,-1.0762 1.55099,-1.80969c0.07529,-1.02303 0.15527,-1.85747 0.5926,-2.6564c0.50718,-0.92653 0.92721,-1.43881 1.33105,-2.01482c0.59722,-0.85182 1.05508,-1.60039 1.50769,-2.50256c0.40464,-0.80655 0.76833,-1.59453 1.1527,-2.33505c0.41763,-0.80458 1.1806,-1.35373 1.40414,-2.05511c0.28433,-0.89212 -0.02333,-1.78506 0.3765,-2.66739c0.40748,-0.89922 0.73473,-1.51573 1.33675,-2.26823c0.50045,-0.62553 1.08224,-1.3651 1.4074,-1.99728c0.50555,-0.98288 0.71857,-1.78596 0.85983,-2.22992c0.30308,-0.95247 0.59328,-1.94316 0.73789,-2.42877c0.39392,-1.32274 0.63709,-2.04576 0.8866,-2.95271c0.25998,-0.94498 0.27489,-1.76268 0.52422,-2.80228c0.16557,-0.69037 0.56979,-1.56696 0.8547,-2.42165l0.68148,-0.51511" id="svg_20" stroke-linecap="null" stroke-linejoin="null" stroke-dasharray="null" stroke="#fbfbfb" fill="none"/>
 </g>
</svg>