<svg width="480" height="480" xmlns="http://www.w3.org/2000/svg" xmlns:svg="http://www.w3.org/2000/svg">
 <g>
  <path d="m234,100c-0.291992,1.148003 -0.615234,2.191345 -0.79068,2.622665c-0.414459,1.018936 -1.036621,2.214058 -1.416321,2.884834c-0.40921,0.722878 -0.865326,1.478333 -1.341003,2.272499c-0.493652,0.824165 -1.002777,1.670181 -1.502991,2.542503c-0.505188,0.881012 -1.459656,2.672417 -1.885681,3.579666c-0.427399,0.910202 -0.828033,1.854393 -1.22998,2.836502c-0.421631,1.030159 -0.851776,2.129944 -1.320007,3.304497c-0.505005,1.26683 -1.673889,4.126106 -2.363342,5.734329c-0.736786,1.718643 -1.529938,3.514709 -2.369995,5.362503c-0.856506,1.883957 -1.737732,3.770966 -2.639984,5.632507c-0.884583,1.825104 -2.627014,5.234619 -3.475342,6.769165c-0.795197,1.438431 -1.578369,2.769669 -2.346008,4.00499c-0.725647,1.16774 -1.444305,2.25766 -2.14801,3.285004c-0.675262,0.985855 -2.002716,2.835922 -2.648987,3.725174c-0.633759,0.872055 -1.25943,1.724777 -1.875,2.560501c-0.604431,0.820587 -1.200134,1.625229 -1.785004,2.416489c-0.575134,0.778076 -1.696045,2.298752 -2.240173,3.044846c-0.53717,0.736572 -1.065826,1.467575 -1.58548,2.195999c-0.516663,0.724258 -1.027283,1.449295 -1.531525,2.177994c-0.505127,0.72998 -1.506317,2.212799 -2.004486,2.968658c-0.501862,0.761459 -1.000458,1.531052 -1.5,2.304001c-0.500458,0.774384 -0.999084,1.549942 -1.5,2.322006c-0.499084,0.769257 -1.49823,2.287186 -1.999176,3.030167c-0.492432,0.730347 -0.978119,1.438492 -1.447479,2.122498c-0.448975,0.654312 -0.874969,1.272232 -1.267517,1.852509c-0.360657,0.533157 -0.95752,1.444473 -1.178986,1.819489c-0.18985,0.321472 -0.342468,0.610321 -0.469513,0.876007c-0.119751,0.250458 -0.227051,0.50441 -0.343506,0.768005c-0.127441,0.288452 -0.457672,0.985443 -0.679321,1.412155c-0.248688,0.478806 -0.528473,0.992996 -0.826508,1.5345c-0.307587,0.558853 -0.622467,1.121445 -0.934509,1.678513c-0.302643,0.540268 -0.854187,1.525116 -1.089142,1.951492c-0.210327,0.381653 -0.397278,0.726028 -0.567017,1.037994c-0.155609,0.286041 -0.300354,0.552551 -0.440979,0.804001c-0.136749,0.244537 -0.422119,0.732559 -0.577667,0.986832c-0.161774,0.264404 -0.33197,0.535294 -0.504028,0.814499c-0.175293,0.284454 -0.35144,0.573425 -0.521973,0.868515c-0.170837,0.295593 -0.489716,0.893738 -0.631165,1.195496c-0.139832,0.298309 -0.266968,0.598953 -0.385529,0.899994c-0.117767,0.298981 -0.226654,0.599533 -0.331482,0.900009c-0.104523,0.29953 -0.304352,0.90004 -0.40451,1.199829c-0.099854,0.298874 -0.199371,0.595871 -0.299988,0.889496c-0.099396,0.290054 -0.198883,0.575089 -0.300018,0.8535c-0.098877,0.272232 -0.298553,0.791092 -0.399994,1.035828c-0.098602,0.237915 -0.519958,1.138443 -0.899994,2.088013c-0.312012,0.779587 -0.516388,1.323486 -0.714661,2.149323c-0.292755,1.21933 -0.268799,1.935425 -0.618668,2.850677c-0.309738,0.810287 -0.839066,1.580978 -1.184006,2.063995c-0.695404,0.973785 -0.995834,1.699188 -1.649673,2.46933c-0.550262,0.648132 -1.376938,0.794174 -2.151657,1.100006c-0.997665,0.393845 -1.722305,0.621735 -2.514664,1.366669c-0.626129,0.588654 -0.910446,1.271027 -1.933334,1.949326c-0.674561,0.447311 -1.552017,0.643082 -2.06633,1.532166c-0.338333,0.584869 -0.841232,1.264572 -1.567001,1.787842c-0.782639,0.564255 -1.286209,1.278198 -1.913513,1.873001c-0.54628,0.517975 -1.453049,1.233093 -2.075989,1.727829c-0.361984,0.287491 -1.188721,0.961884 -1.652664,1.358002c-0.5056,0.431671 -1.627151,1.435669 -2.242676,2.01149c-0.649963,0.608032 -1.313797,1.24649 -1.984497,1.899002c-0.669632,0.651489 -1.322037,1.295303 -1.948502,1.917007c-0.59082,0.586334 -1.615494,1.610992 -2.03183,2.027328c-0.35434,0.35434 -1.123947,1.126724 -1.626343,1.626343c-0.814911,0.810425 -1.307159,1.274719 -1.985825,1.87149c-0.41951,0.368881 -1.471054,1.253036 -2.11084,1.782669c-0.714844,0.591766 -1.505035,1.241501 -2.358002,1.960495c-0.921906,0.777115 -1.903641,1.619705 -2.93399,2.536499c-1.092651,0.972244 -3.408508,3.132843 -4.619843,4.321671c-1.251587,1.228317 -2.507248,2.502838 -3.763489,3.796509c-1.251419,1.288696 -2.471863,2.568192 -3.655502,3.814499c-1.134979,1.195068 -3.19519,3.374756 -4.102341,4.324493c-0.819641,0.858124 -1.560608,1.627014 -2.227493,2.312988c-0.59491,0.611938 -1.126022,1.152649 -1.597504,1.628998c-0.415268,0.419556 -1.102493,1.107025 -1.383163,1.387695c-0.244675,0.244659 -0.457321,0.457336 -0.641998,0.641998c-0.16066,0.160645 -0.301346,0.301331 -0.42601,0.425995c-0.112656,0.112671 -0.317993,0.317993 -0.418167,0.418152c-0.101166,0.101166 -0.20433,0.204346 -0.310486,0.310516c-0.110168,0.110168 -0.225342,0.225311 -0.346512,0.346497c-0.128159,0.128174 -0.409256,0.409729 -0.564163,0.563995c-0.162415,0.161743 -0.470169,0.533539 -1.026001,0.968994c-0.848526,0.664764 -1.881271,0.81723 -2.295502,1.414337c-0.547318,0.78894 -0.434967,1.722351 -0.931824,2.320831c-0.462051,0.556549 -0.425339,1.808014 -0.425339,2.594666c0,0.443329 0,1.380005 0,2.316681c0,1.22998 0.05661,2.09314 -0.057159,2.855164c-0.148178,0.992493 -0.470016,1.722137 -0.658844,2.525482c-0.232391,0.988678 -0.278656,1.835968 -0.283997,2.800018c-0.004715,0.85199 -0.017746,1.654053 0.020828,2.424316c0.043182,0.862366 0.248322,2.061371 0.415176,2.647675c0.244919,0.860565 0.676529,1.884186 0.953323,2.585327c0.265793,0.673279 0.539978,1.909546 0.574677,2.461334c0.054535,0.867371 0.035995,2.063843 0.035995,2.953339c0,0.574677 0,1.644012 0,2.574677c0,0.834656 0.001923,1.877258 -0.041672,2.423492c-0.058121,0.728302 -0.289627,2.312836 -0.401001,3.004486c-0.123077,0.764374 -0.262207,1.582092 -0.40799,2.436005c-0.14888,0.872101 -0.299622,1.743866 -0.444,2.598022c-0.138245,0.817841 -0.374619,2.27359 -0.462509,2.880157c-0.07576,0.522827 0.081924,1.788391 -0.4095,2.560486c-0.447449,0.703003 -1.061859,1.297668 -1.40799,1.96933c-0.418533,0.812134 0.119507,1.901825 -0.468002,2.706696c-0.530472,0.726746 -1.378235,0.254028 -2.328003,0.071991c-0.664902,-0.127441 -1.862091,-0.30426 -2.807999,-0.440002c-0.824951,-0.118378 -1.628708,-0.968567 -2.578842,-0.631165c-0.63382,0.225067 -0.898804,1.426575 -1.313995,2.027985c-0.481583,0.697601 -1.04129,1.442535 -1.332504,1.83252c-0.893829,1.19693 -1.48941,1.983337 -1.79599,2.353333c-0.587601,0.709137 -1.120331,1.427765 -2.09967,1.956482c-0.82666,0.446289 -1.729782,0.566986 -2.72966,0.202179c-0.709137,-0.258728 -1.492172,-0.675171 -2.454666,-0.717346c-0.864319,-0.037872 -1.70253,-0.454346 -2.516006,-0.832001c-0.665344,-0.308899 -1.527649,-0.705658 -1.291,-0.457642c0.618896,0.648621 1.114014,1.354828 1.334,1.734161c0.988922,1.705353 1.386856,2.5336 1.862335,3.451477c0.517014,0.998077 1.057373,2.055969 1.615494,3.147003c0.563217,1.100983 1.117477,2.189514 1.660507,3.237c0.980164,1.890686 1.404953,2.689117 1.79866,3.385345c0.350433,0.61972 0.682327,1.168915 1.020004,1.648499c0.316498,0.449493 0.650101,0.864807 1.020004,1.2435c0.786148,0.80481 1.282364,1.193451 1.809326,1.612c0.559799,0.444641 1.166519,0.890625 1.816498,1.332001c0.673935,0.457642 1.382172,0.909973 2.1315,1.332001c1.538498,0.866486 2.360611,1.233429 3.184006,1.594666c0.817719,0.358734 1.634216,0.684631 2.434494,0.98999c0.771805,0.294495 1.512924,0.560181 2.209503,0.809998c1.227875,0.440338 1.74559,0.627258 2.198669,0.804016c0.401459,0.156616 0.758179,0.300323 1.070999,0.448486c0.810577,0.383911 1.808243,1.010529 2.371674,1.346191c0.596436,0.355347 1.913712,1.024567 2.635986,1.289307c0.726074,0.266144 1.459183,0.464447 2.14801,0.684021c1.207153,0.384796 1.972168,0.716187 2.47467,0.958496c1.144455,0.551819 1.828323,0.903931 2.557159,1.388672c0.403442,0.268311 1.257324,0.937042 2.104172,1.854156c0.473038,0.512299 0.924438,1.104065 1.386002,1.734009c0.480118,0.655243 0.950775,1.347046 1.421997,2.057983c0.476151,0.718384 0.939789,1.44632 1.858658,2.874664c0.444092,0.690338 0.877945,1.359161 1.300507,2.005524c0.408112,0.624268 0.803238,1.223938 1.183502,1.798492c0.363419,0.549103 1.349075,2.02951 1.639496,2.464508c0.523865,0.784637 0.96521,1.471588 1.555161,2.290161c0.587494,0.815155 1.152847,1.497955 1.792511,2.074646c0.824844,0.743622 1.533569,1.118286 2.157166,1.400024c0.947281,0.427979 1.745789,0.712494 2.528503,0.94281c1.033234,0.304016 1.88916,0.223328 2.797821,0.691833c0.707565,0.364807 1.044785,0.942627 1.501343,1.608002c0.589584,0.859253 1.274246,1.989929 2.877335,5.223999c1.044205,2.106567 2.13176,4.539948 3.30899,7.19101c1.241928,2.796753 2.48761,5.681885 3.723007,8.576996c1.207169,2.828949 2.346451,5.52478 4.301331,10.231995c0.780441,1.879242 1.421951,3.442688 1.938004,4.723511c0.413956,1.027435 0.733505,1.837189 0.966003,2.464508c0.174973,0.472137 0.30159,0.825012 0.429321,1.311981c0.049606,0.189117 0.082947,0.361298 0.113998,0.514496c0.027588,0.136108 0.049789,0.25708 0.078003,0.361511c0.024826,0.091888 0.042633,0.181976 0.141342,0.29068c0.047806,0.052643 0.116745,0.085175 0.185989,0.1185c0.072098,0.034698 0.149261,0.065643 0.222,0.109497c0.074814,0.045135 0.160919,0.095642 0.258667,0.272003c0.057419,0.103607 0.08551,0.235229 0.109512,0.376495c0.02562,0.150787 0.038361,0.310883 0.046494,0.475494c0.008224,0.166412 0.010376,0.332001 0.010666,0.64801c0.000137,0.144501 0.001495,0.276306 -0.009003,0.391479c-0.008835,0.096893 -0.099915,0.258698 -0.563004,-0.166168c-0.595337,-0.546173 -0.876114,-1.191315 -1.594666,-2.058655c-0.503555,-0.607849 -1.043106,-1.18338 -1.571991,-1.727997c-0.919586,-0.94693 -1.447006,-1.457672 -2.05867,-2.069336c-0.702667,-0.702667 -1.37291,-1.439575 -1.959839,-1.902679c-0.691727,-0.545776 -1.553772,-0.981018 -2.181488,-1.689331c-0.514847,-0.580933 -1.164627,-1.063232 -1.545837,-1.500488c-0.349594,-0.401001 -0.865768,-0.968018 -1.591507,-1.735504c-0.962677,-1.018066 -2.210342,-2.317566 -5.757324,-5.874664c-2.33493,-2.341583 -5.022049,-4.98999 -7.971008,-7.894501c-3.138916,-3.091614 -6.403381,-6.29364 -9.716995,-9.541504c-3.29039,-3.225098 -6.490768,-6.35318 -12.311996,-12.063995c-2.499695,-2.452271 -4.709961,-4.626007 -6.649506,-6.544495c-1.696213,-1.677795 -3.166122,-3.139893 -4.426498,-4.411499c-1.082199,-1.091858 -2.011002,-2.021942 -3.423996,-3.544006c-0.557632,-0.600677 -1.017212,-1.126068 -1.395004,-1.576508c-0.314911,-0.375458 -0.564468,-0.693451 -0.764999,-0.955505c-0.162582,-0.212463 -0.277969,-0.399323 -0.506668,-0.634644c-0.09375,-0.096466 -0.194839,-0.167023 -0.291,-0.219025c-0.085632,-0.046295 -0.166626,-0.075226 -0.237,-0.092987c-0.057175,-0.014435 -0.137878,0.016083 -0.138672,-0.021332c-0.000214,-0.010254 0.04277,-0.006165 0.094498,-0.031494c0.078644,-0.038513 0.180252,-0.109924 0.301514,-0.22052c0.156387,-0.142639 0.34523,-0.333344 0.77066,-0.914642c0.274979,-0.375732 0.556931,-0.824738 0.871506,-1.315521c0.337494,-0.52652 0.687744,-1.082458 1.060501,-1.648499c0.378204,-0.57431 0.743866,-1.158936 1.567993,-2.202667c0.388367,-0.491852 0.800888,-0.940674 1.235992,-1.355988c0.439697,-0.419678 0.924179,-0.819244 1.452011,-1.212006c0.562561,-0.41861 1.187195,-0.846375 2.645325,-1.76532c0.833466,-0.525269 1.739273,-1.071472 2.697006,-1.639496c0.991547,-0.588074 2.008804,-1.17749 3.039001,-1.7565c1.021179,-0.573975 2.01738,-1.139374 3.930664,-2.104004c0.865723,-0.436462 1.684799,-0.813995 2.457001,-1.147522c0.72406,-0.312714 1.416138,-0.586639 2.078995,-0.832489c0.635254,-0.235626 1.255356,-0.448608 2.464005,-0.853333c0.599182,-0.200653 1.195541,-0.398743 1.786499,-0.591003c0.581055,-0.189026 1.15007,-0.370392 1.705505,-0.536987c0.535614,-0.160645 1.047623,-0.319733 2.007996,-0.538666c0.433685,-0.098877 0.843399,-0.16803 1.2285,-0.223511c0.362961,-0.052307 0.708954,-0.089386 1.039505,-0.124512c0.318451,-0.033844 0.629898,-0.055267 1.231995,-0.151978c0.300919,-0.04834 0.599197,-0.115112 0.895493,-0.186005c0.294373,-0.070435 0.583618,-0.147552 0.868515,-0.222015c0.278763,-0.072876 0.548401,-0.151764 1.069321,-0.258667c0.244049,-0.050079 0.47966,-0.08432 0.705002,-0.109497c0.214691,-0.023987 0.419907,-0.038116 0.615005,-0.046478c0.184937,-0.007904 0.360001,-0.01001 0.679993,-0.010681c0.145172,-0.000305 0.281342,0 0.4095,0c0.12117,0 0.236343,0 0.346512,0c0.106155,0 0.20932,0 0.41066,0c0.100174,0 0.20134,0 0.304504,0c0.106155,0 0.216324,0 0.331497,0c0.12117,0 0.249329,0 0.53067,0c0.154663,0 0.317322,0 0.485992,0c0.522003,0 1.594666,0 2.514008,0c0.669327,0 1.833328,0 2.437836,0c0.852661,0 1.816986,0 2.631485,0c0.868515,0 2.064346,-0.016876 2.6595,0.009003c0.86998,0.037842 1.967239,0.273499 2.647339,0.700836c0.67952,0.426971 1.426987,1.172516 2.246506,1.643494c0.702072,0.403503 1.602478,0.562988 2.532166,0.868011c0.715286,0.23468 1.672241,0.658081 2.467834,0.742645c0.722092,0.076752 1.800003,0.036011 2.610657,0.036011c0.900009,0 2.053772,0.195679 2.547333,-0.357178c0.605087,-0.677795 0.93811,-1.444702 1.705338,-1.947327c0.693558,-0.454376 1.454376,-1.18631 1.847336,-1.695496c0.652008,-0.844879 1.334641,-1.349579 2.016006,-1.798676c0.737213,-0.485901 1.41481,-1.289673 2.004822,-1.680481c0.880707,-0.583374 2.039276,-0.32962 2.4375,-1.041687c0.424698,-0.759399 0.648697,-1.407623 1.241684,-2.04715c0.599731,-0.64682 1.246796,-1.277985 2.001312,-1.717346c0.740448,-0.431152 1.329834,-0.915039 1.741333,-1.370667c0.685913,-0.75946 1.048981,-1.406647 1.512024,-2.191986c1.254395,-2.127563 1.961212,-3.56311 2.791992,-5.167999c0.904388,-1.74704 1.85025,-3.597168 2.857483,-5.484009c1.012756,-1.897247 2.012054,-3.761963 3.08252,-5.484009c1.904694,-3.064087 2.8508,-4.255768 3.807983,-5.150665c0.843933,-0.789001 1.768402,-1.354675 2.734497,-1.594482c0.974701,-0.241943 2.0784,-0.197479 3.229523,0.070496c2.757233,0.641876 4.29245,1.415833 5.987976,2.164001c1.81546,0.801086 3.689026,1.713135 5.595001,2.703003c1.934326,1.004608 3.847046,2.049774 5.684998,3.152985c3.473022,2.084625 4.969299,3.16275 6.333344,4.121338c1.188965,0.835571 2.141571,1.573883 2.940002,1.99649c0.508942,0.269379 0.873535,0.166412 0.779999,-0.208496c-0.522003,-2.092102 -1.89505,-3.56131 -3.149323,-5.549316c-1.452545,-2.302277 -3.093964,-4.807098 -4.83902,-7.4505c-1.785522,-2.704681 -3.572479,-5.377136 -5.289001,-7.945496c-3.002319,-4.492218 -4.189087,-6.271057 -5.154663,-7.737335c-0.777985,-1.181396 -1.385956,-2.116089 -1.847992,-2.838013c-0.345459,-0.539764 -0.590759,-0.936127 -0.768005,-1.217987c-0.230377,-0.366364 -0.330566,-0.511749 -0.432007,-0.64801c-0.098572,-0.132385 -0.199982,-0.258667 -0.299988,-0.384003c-0.100006,-0.125336 -0.202301,-0.250946 -0.299988,-0.384003c-0.204895,-0.279144 -0.301331,-0.436523 -0.400024,-0.600006c-0.101318,-0.167847 -0.199982,-0.341339 -0.299988,-0.515991c-0.100006,-0.174652 -0.197723,-0.348694 -0.299988,-0.515991c-0.195648,-0.320068 -0.296875,-0.463654 -0.396027,-0.59201c-0.088196,-0.114136 -0.166351,-0.209351 -0.241486,-0.266998c-0.051117,-0.039215 -0.102844,-0.037567 -0.106506,0.002991c-0.018829,0.209167 0.105804,0.380249 0.198669,0.596008c0.109375,0.25412 0.241547,0.535217 0.386993,0.838501c0.153168,0.319427 0.314178,0.645905 0.47702,0.973511c0.313721,0.631104 0.458221,0.92157 0.597321,1.190643c0.1297,0.250854 0.253967,0.48288 0.384003,0.690002c0.121033,0.19278 0.241943,0.370117 0.384003,0.51001c0.264191,0.260193 0.434326,0.337494 0.600006,0.403992c0.165985,0.06662 0.34079,0.110382 0.515991,0.148499c0.174164,0.037903 0.348358,0.064209 0.515991,0.103516c0.319611,0.074921 0.464752,0.134796 0.601349,0.202667c0.136536,0.067871 0.268402,0.150024 0.403503,0.235504c0.14093,0.089142 0.286804,0.187347 0.448486,0.280487c0.359344,0.207001 0.571533,0.303345 0.801331,0.394684c0.241577,0.096008 0.49939,0.180084 0.770996,0.241486c0.277924,0.062836 0.566956,0.109558 0.861023,0.106506c0.598907,-0.006226 0.900208,-0.099518 1.198639,-0.197327c0.306213,-0.100372 0.609863,-0.232178 0.919525,-0.367523c0.315674,-0.13797 0.632568,-0.287903 0.964478,-0.412476c0.674255,-0.253052 1.036987,-0.322327 1.780853,-0.47934c0.796844,-0.168182 1.665924,-0.39032 2.105835,-0.59668c1.524292,-0.715057 2.003845,-1.192078 2.542328,-1.620148c0.563141,-0.447693 1.127136,-0.933228 1.707001,-1.426514c0.587494,-0.499756 1.161926,-1.021057 2.378662,-1.944c0.589996,-0.44751 1.774323,-1.224701 2.34668,-1.570679c0.546173,-0.330139 1.075195,-0.622009 2.026642,-1.154663c1.121368,-0.627747 1.872162,-1.074188 2.626678,-1.774658c0.604584,-0.561279 1.141327,-1.141327 1.986511,-1.986511c0.358826,-0.358826 0.755646,-0.755646 1.659332,-1.659332c0.504822,-0.504822 1.043671,-1.043671 1.615479,-1.615479c1.238678,-1.238678 1.902496,-1.901703 2.585358,-2.58667c0.693848,-0.695984 1.388,-1.394653 2.069977,-2.089508c0.664642,-0.677216 1.301331,-1.328613 1.890015,-1.954498c1.034912,-1.100311 1.446198,-1.575958 1.797333,-1.993347c0.303101,-0.360321 0.474518,-0.751129 1.121674,-1.373322c0.684906,-0.658508 1.484802,-0.730652 2.474152,-0.741333c0.779297,-0.008392 1.778656,0 2.598846,0c0.901337,0 1.849304,0.048462 2.62265,-0.446655c0.592743,-0.379517 1.349792,-1.036194 2.099518,-1.574188c0.532227,-0.381927 1.56076,-1.175385 2.022003,-1.574646c0.650909,-0.563446 1.462982,-1.229736 2.079651,-1.678833c0.764862,-0.557037 1.41684,-1.108643 2.210846,-1.892349c0.481812,-0.47554 0.993378,-1.025375 1.548004,-1.619995c0.589447,-0.631973 1.200745,-1.297806 1.835999,-1.979996c0.646729,-0.694519 1.290375,-1.40007 2.615997,-2.733337c0.637848,-0.64151 1.272217,-1.242599 1.886993,-1.815002c0.588013,-0.547501 1.154877,-1.059753 1.688995,-1.544998c0.500549,-0.454773 0.981934,-0.860367 1.757324,-1.639999c0.622528,-0.625946 0.946014,-1.265854 1.626678,-1.925339c0.609802,-0.590805 1.364746,-0.517059 2.540009,-0.40799c0.537842,0.049911 1.791992,0.172806 2.47998,0.205322c0.707123,0.033417 1.421295,0.04335 2.122498,-0.010498c0.679352,-0.05217 2.44101,-0.549469 2.865509,-0.868164c0.794159,-0.596207 1.304901,-1.40416 1.70401,-2.160004c0.494537,-0.9366 0.839081,-1.627518 1.661316,-2.5c0.491028,-0.521042 0.932526,-0.922058 1.466522,-1.409332c1.024048,-0.934448 1.451172,-1.289505 2.381989,-2.086502c0.496216,-0.424881 1.006104,-0.857834 1.519501,-1.297501c0.512268,-0.438675 1.968231,-1.703476 2.400513,-2.096832c0.789642,-0.718536 1.146973,-1.049225 1.760834,-1.685822c0.539612,-0.559601 1.334259,-1.579117 1.845642,-2.299011c0.374817,-0.527634 1.11853,-1.464142 1.806335,-2.223663c0.399445,-0.441071 0.849731,-0.916946 1.339508,-1.442993c0.535583,-0.575256 1.119781,-1.202194 1.744507,-1.893005c1.40918,-1.558289 2.177887,-2.446045 2.989319,-3.391998c0.849701,-0.990585 1.719421,-2.023849 2.599518,-3.089996c0.891937,-1.08049 1.779785,-2.17128 2.644501,-3.270004c1.681305,-2.136276 2.453064,-3.177322 3.186646,-4.182663c0.701874,-0.961853 1.355713,-1.88855 1.96051,-2.776505c0.56958,-0.836273 1.091797,-1.625885 1.555511,-2.371506c0.812958,-1.30719 1.129547,-1.883926 1.405334,-2.401321c0.245361,-0.460297 0.449463,-0.876022 0.622498,-1.248001c0.15329,-0.329529 0.279144,-0.62645 0.397491,-0.888c0.202393,-0.447296 0.302826,-0.638229 0.40799,-0.809341c0.099457,-0.16185 0.206604,-0.310196 0.319519,-0.448502c0.112457,-0.137741 0.645813,-0.687485 1.131836,-1.173492c0.694672,-0.694656 1.326813,-1.326859 1.951477,-1.951508c0.434357,-0.434341 1.39563,-1.396042 1.825012,-1.824829c0.483917,-0.483246 1.017487,-1.014847 1.597504,-1.587006c0.618286,-0.609909 1.27182,-1.249557 1.957489,-1.910995c0.707611,-0.682602 2.180603,-2.075043 2.936676,-2.772491c0.757263,-0.698547 1.517578,-1.387848 2.272491,-2.068512c0.743439,-0.670319 1.473694,-1.323578 2.182495,-1.960495c0.68454,-0.615097 1.959106,-1.769775 2.537842,-2.306671c0.543823,-0.504547 1.049896,-0.983063 1.520996,-1.435501c0.441467,-0.423981 0.851379,-0.824631 1.233002,-1.201492c0.356964,-0.352509 0.998444,-0.995056 1.289337,-1.284668c0.527649,-0.525345 1.190887,-1.224197 2.042999,-1.876495c0.575897,-0.440857 1.414307,-0.850525 2.114655,-1.649338c0.533813,-0.608856 1.093872,-1.306671 1.985168,-1.517502c0.787781,-0.186356 0.900177,-1.099838 0.900177,-1.999832c0,-0.800003 -0.331024,-1.451477 -0.833344,-2.166672c-0.488434,-0.695435 -0.28656,-1.61319 -0.741333,-2.433334c-0.433746,-0.782196 -0.713531,-1.601456 -1.186981,-2.214325c-0.561523,-0.726898 -1.056305,-1.441589 -1.585663,-2.180328c-0.622528,-0.868759 -1.166138,-1.459824 -1.652679,-2.172012c-0.442963,-0.648407 -0.846222,-1.465652 -1.485321,-2.231995c-0.505829,-0.606552 -1.093048,-1.147766 -1.914673,-1.717331c-0.779449,-0.540314 -1.598419,-1.052673 -2.209015,-1.536667c-0.661285,-0.52417 -1.714355,-1.204483 -2.361664,-1.462006c-0.691589,-0.275146 -1.449097,-0.48056 -2.231995,-0.68399c-1.195007,-0.310516 -1.999908,-0.496597 -2.797333,-0.722168c-0.802673,-0.227066 -2.002014,-0.640762 -2.399841,-0.800507c-0.799805,-0.321152 -1.578003,-0.68158 -2.342987,-1.026001c-1.088654,-0.490143 -1.771851,-0.775681 -2.778015,-1.152664c-0.687225,-0.257477 -1.812927,-0.665558 -2.221832,-0.821335c-0.863556,-0.328979 -1.756927,-0.679657 -2.651978,-1.026001c-0.437164,-0.169159 -1.663391,-0.62999 -2.40451,-0.904495c-0.722229,-0.267517 -1.470673,-0.541046 -2.700836,-1.081497c-0.956512,-0.420227 -1.453064,-0.668442 -1.965332,-0.906677c-1.02182,-0.475189 -1.500458,-0.745483 -2.868011,-1.259995c-0.716248,-0.26947 -1.582458,-0.454651 -2.666656,-0.5c-0.820892,-0.034332 -1.53064,-0.06279 -2.642822,-0.442673c-0.678406,-0.23172 -1.370636,-0.576385 -2.109009,-0.85199c-1.071503,-0.399933 -1.756653,-0.577347 -2.706512,-0.663666c-0.852356,-0.077454 -1.865967,-0.019287 -2.645813,-0.083344c-0.636353,-0.052277 -1.897095,-0.285873 -3.00119,-0.526321c-0.615845,-0.134125 -1.257202,-0.283203 -1.915497,-0.432007c-0.663025,-0.149872 -1.957611,-0.447067 -3.145813,-0.666672c-0.524811,-0.097 -1.450317,-0.240601 -2.25,-0.291656c-1.060577,-0.067703 -2.104675,-0.041672 -2.835999,-0.041672c-0.747345,0 -1.49469,0 -2.92569,0c-0.660004,0 -1.574982,0 -2.654999,0c-0.713989,0 -1.619324,0 -2.588654,0c-0.846008,0 -1.496674,0.000046 -2.235321,0c-1.306335,-0.000092 -2.291748,-0.00116 -2.797363,-0.010666c-0.997467,-0.018753 -1.936188,0.009644 -3.037811,-0.210663c-0.740906,-0.148163 -1.605896,-0.669754 -2.507507,-0.778671c-0.798706,-0.096497 -1.496979,-0.555313 -2.321503,-1.100174c-0.680878,-0.449936 -1.299866,-0.759293 -2.077179,-1.382492c-0.786438,-0.630524 -1.398499,-1.30452 -2.296814,-1.508331c-0.807892,-0.183304 -1.639923,-0.662025 -2.129852,-1.29567c-0.359833,-0.465378 -0.904541,-1.48011 -1.653809,-2.150833c-0.6474,-0.579536 -1.515747,-0.78614 -2.290192,-1.415833c-0.508667,-0.413597 -0.986755,-0.941589 -2.063995,-1.813332c-0.469116,-0.379623 -1.181763,-0.761932 -2.166656,-1.5c-0.61969,-0.464371 -1.193115,-1.058289 -1.514679,-1.520004c-0.664246,-0.953789 -0.877319,-1.844383 -1.369324,-2.458664c-0.644775,-0.804993 -1.649231,-0.89576 -2.490662,-1.279999c-0.810425,-0.370071 -1.625183,-0.564247 -2.603821,-0.574669c-0.820129,-0.008728 -1.851929,0.421822 -2.58551,-0.036003c-0.674622,-0.421013 -0.404083,-1.295944 -0.415161,-2.234833c-0.016083,-1.363777 -0.0177,-3.235664 -0.019501,-5.698494c-0.005157,-7.03067 -0.002045,-11.722504 0,-17.085335c0.002228,-5.864838 0.006836,-12.062675 0.019501,-18.4245c0.012665,-6.356842 0.026581,-12.539722 0.064484,-18.379501c0.064728,-9.974789 0.121979,-13.814163 0.200012,-16.888c0.060791,-2.394474 0.126282,-4.195171 0.235504,-5.4825c0.073456,-0.865713 0.096466,-1.438503 0.280487,-1.657501c0.147156,-0.175104 0.298676,-0.113333 0.398682,-0.113333c0.099976,0 0.199982,0 0.299988,0c0.100006,0 0.200012,0 0.299988,0c0.200012,0 0.299866,-0.000866 0.398682,0.001333c0.096863,0.002155 0.19104,0.006458 0.280487,0.019501c0.085297,0.012436 0.167328,0.028374 0.235504,0.064499c0.127136,0.06736 0.167816,0.134083 0.201324,0.200001c0.035522,0.069866 0.059326,0.150476 0.084015,0.2355c0.026031,0.089636 0.048767,0.185019 0.084015,0.280499c0.074524,0.201857 0.135254,0.300007 0.199982,0.398668c0.066559,0.101419 0.141327,0.199999 0.216003,0.299999c0.074677,0.1 0.15094,0.197622 0.216003,0.299999c0.12439,0.195702 0.165039,0.298965 0.199982,0.398668c0.033661,0.096052 0.058685,0.190666 0.084015,0.280499l0.02533,0.084833l0.027344,0.078835l0.031342,0.071833" id="svg_7" stroke-linecap="null" stroke-linejoin="null" stroke-dasharray="null" stroke="#fff" fill="none"/>
  <path d="m251,128c-0.718658,0.610672 -1.492798,1.02179 -2.37149,1.300003c-0.685822,0.217148 -1.441742,0.401123 -2.62851,0.699997c-0.79715,0.20076 -1.580383,0.393646 -2.328003,0.600006c-0.703003,0.194046 -1.896881,0.618973 -2.671997,0.879166c-0.761536,0.25563 -1.968536,0.448029 -2.661346,0.484833c-0.723419,0.038422 -1.456146,0.017365 -2.85733,0.038666c-0.677521,0.0103 -1.382904,0.040894 -2.135986,0.167999c-1.319153,0.222656 -1.802704,0.393753 -2.853333,0.690659c-0.555237,0.156906 -1.704285,0.494934 -2.29599,0.656006c-1.193604,0.324936 -1.792908,0.473099 -2.982513,0.720993c-0.580322,0.120926 -1.704468,0.321823 -2.242004,0.400009c-1.468903,0.213654 -2.317535,0.287613 -3.084839,0.325668c-0.726196,0.036011 -1.453339,0.035324 -2.62915,0.035995c-0.858337,0.000488 -1.736664,0 -2.595001,0c-1.162506,0 -1.808838,-0.042984 -2.600006,0.020828c-1.069,0.086227 -1.878937,0.365692 -2.577179,0.780502c-0.888123,0.527603 -1.58963,1.048782 -2.485321,1.198669c-0.838196,0.140259 -1,1 -1,1.800003c0,0.899994 0,1.800003 0,2.699997c0,0.899994 0,1.804504 0,2.666672c0,0.833328 0,1.811996 0,2.585999c0,0.904495 0,1.651825 0,2.647324c0,0.800003 0,1.800003 0,2.600006c0,1 0,1.979172 0,2.833328c0,0.792007 0,1.819336 0,2.514008c0,1.027328 0,1.973999 0,2.827332c0,0.94133 0,1.709335 0,2.650665c0,1.007996 -0.027039,1.800476 0.001343,2.658661c0.028595,0.86467 0.42337,1.717636 0.832001,2.516006c0.408936,0.79895 0.990936,1.337021 1.5,2.166672c0.321533,0.523987 1.017365,1.181793 1.645142,1.811829c0.609741,0.611938 1.360443,1.294632 1.821503,1.90683c0.548706,0.728592 0.94281,1.627441 1.700012,2.093842c0.765381,0.471451 1.356628,0.806931 2.26416,1.342163c0.589111,0.347443 1.254974,0.682022 2.269165,1.194672c0.923309,0.466705 1.500946,0.731674 2.397339,1.325333c0.367828,0.243607 1.737823,1.323105 2.319336,1.808334c0.645386,0.538544 1.335876,1.128952 2.070007,1.748993c0.762512,0.643997 1.543213,1.300232 2.339996,1.947006c0.789948,0.641205 2.333801,1.829758 3.074829,2.346497c0.69809,0.486816 1.371643,0.919632 2.014496,1.306503c0.601105,0.36174 1.172668,0.679779 1.708496,0.964493c0.494995,0.263016 1.375519,0.703506 1.756165,0.893829c0.657349,0.328674 1.443329,0.72168 2.286011,1.143005c0.600006,0.300003 1.399994,0.699997 2.399994,1.199997c0.600006,0.300003 1.593079,0.814484 2.200012,1.095505c0.791412,0.36644 1.796143,0.652664 2.563995,0.693832c1.077332,0.05777 1.937286,0.058456 2.835999,0.010666c0.803375,-0.042725 1.606812,-0.589828 1.97467,-1.399994c0.355743,-0.783447 0.834747,-1.369492 1.567993,-1.921509c0.699219,-0.526382 1.469025,-1.064316 2.123993,-1.678497c0.584167,-0.547775 1.3125,-0.999985 2.069336,-0.917328c1.118958,0.122208 1.802887,0.478378 2.590668,0.791992c0.866089,0.344788 1.774353,0.747055 2.714996,1.167007c0.952728,0.425354 1.889832,0.859299 2.805023,1.256989c1.647125,0.715744 2.354675,0.988647 2.987976,1.184006c0.55545,0.171341 1.060059,0.297043 1.519501,0.309006c0.82077,0.021378 1.987213,-0.444 2.388672,-0.677841c0.885803,-0.515976 1.333099,-0.85025 2.242493,-1.592499c0.474335,-0.387131 0.95871,-0.785217 2.292847,-2.142166c0.442871,-0.450455 0.85733,-0.91684 1.264496,-1.372498c0.777863,-0.870483 1.103027,-1.316696 2.123993,-2.339996c0.545685,-0.546921 1.322571,-1.111313 2.016022,-1.632004c0.749664,-0.562912 1.284607,-1.025497 2.056,-1.820007c0.504761,-0.519882 1.148499,-1.273956 1.599976,-2c0.439484,-0.706711 0.82428,-1.549866 1.314026,-2.515488c0.344727,-0.679672 0.666901,-1.352905 1.180664,-2.199173c0.503967,-0.830139 1.009033,-1.446365 1.366669,-2.273331c0.342865,-0.792801 0.515778,-1.445847 0.799988,-2.559998c0.211823,-0.830414 0.395477,-1.707718 0.600006,-2.580002c0.195648,-0.834366 0.488953,-1.926285 0.699982,-2.52417c0.285187,-0.807907 0.710815,-1.892548 0.898682,-2.53183c0.202362,-0.688675 0.473236,-1.777771 0.634674,-2.863998c0.100891,-0.678879 0.150085,-1.647476 0.21933,-2.262177c0.1362,-1.209106 0.316376,-1.814468 0.522003,-2.8125c0.153625,-0.745575 0.310211,-2.05574 0.339996,-2.545334c0.062805,-1.032593 0.069489,-1.567429 0.080841,-2.645828c0.005615,-0.534149 0.004486,-2.057663 0.004486,-2.981995c0,-0.436172 0,-1.261505 0,-2.752167c0,-0.681335 0,-1.330673 0,-2.262177c0,-1.204498 0,-1.804489 0,-2.704498c0,-1.199997 0,-1.79866 0,-2.679169c0,-0.835495 0,-1.840836 0,-2.583328c0,-0.877502 0,-2.022827 0,-2.948166c0,-0.490662 0,-1.488007 0,-2.453339c0,-0.869331 0.034241,-1.914246 -0.036011,-2.729332c-0.084351,-0.978432 -0.311127,-1.766876 -0.574646,-2.617332c-0.183716,-0.592873 -0.585938,-1.789162 -0.789337,-2.378662c-0.295074,-0.855225 -0.677826,-1.899307 -1,-2.564003c-0.374603,-0.772835 -1.041382,-1.591606 -1.600006,-2.41333c-0.433228,-0.637291 -0.808716,-1.34333 -1.389343,-2.197334c-0.496857,-0.730774 -0.825897,-1.575111 -1.710663,-1.636002c-0.897858,-0.06179 -1.715393,-0.123169 -2.657166,0.057167c-0.926178,0.177345 -1.559875,0.707069 -2.490173,0.885666c-0.904572,0.17366 -1.797516,-0.076401 -2.73114,0.278503c-0.659607,0.25074 -1.521515,0.778664 -2.321503,1.131332l-0.700012,0.480667l-0.799988,0.165329" id="svg_8" stroke-linecap="null" stroke-linejoin="null" stroke-dasharray="null" stroke="#fff" fill="none"/>
  <path d="m241,147c0,0.861328 0.155396,1.863266 -0.071991,2.625336c-0.225494,0.755768 -0.99176,1.353104 -1.360016,1.975998c-0.556152,0.940689 -0.456146,1.748611 -0.578674,2.773331c-0.115143,0.962967 -0.592621,1.591415 -0.867828,2.603836c-0.190582,0.701035 -0.12085,1.621506 -0.12149,2.542328c-0.000671,0.961838 -0.08374,1.751053 -0.574677,2.493835c-0.445557,0.674133 -0.533936,1.525818 -0.203644,0.88501c0.326355,-0.633179 1.094177,-1.446457 1.614319,-2.150345c0.370667,-0.501633 1.140839,-1.443634 1.755005,-1.934998c0.670776,-0.536636 1.167664,-1.227005 1.851837,-1.914337c0.49588,-0.498184 1.496216,-1.0569 2.146484,-1.463989c0.770264,-0.482208 1.537994,-0.844879 2.410675,-1.269333c0.659668,-0.320862 1.423126,-0.851578 2.304504,-1.109512c0.829254,-0.242676 1.742432,0.081863 2.673981,-0.278488c0.777863,-0.300903 1.553558,-0.713455 2.321503,-1.131332c0.840912,-0.457581 1.932434,-1.081604 2.533356,-0.480667c0.600922,0.600922 0.166656,1.633331 0.166656,2.533325c0,0.900009 0.002228,1.800003 0,2.699997c-0.002258,0.900024 -0.367401,1.748001 -0.716003,2.400009c-0.453064,0.847382 -0.744415,1.723602 -1.231323,2.495499c-0.443085,0.702438 -1.044464,1.225113 -1.052673,2.104492c-0.008362,0.895477 0.335052,1.681198 1.02533,2.174667c0.625793,0.447357 1.183197,-0.318039 1.97467,-0.741333c0.748779,-0.400467 1.499817,-0.822906 2.399994,-0.833328c0.899933,-0.010406 1.800018,0 2.700012,0l0.899994,0l0.528015,0" id="svg_9" stroke-linecap="null" stroke-linejoin="null" stroke-dasharray="null" stroke="#fff" fill="none"/>
  <path d="m267,101c0.114319,0.875999 0.429169,1.771667 0.727844,2.380501c0.359253,0.732285 0.842926,1.553535 1.130829,1.994164c0.973877,1.49054 1.397644,2.002853 1.826324,2.553169c0.451172,0.579193 0.937592,1.178337 1.455017,1.801498c0.54245,0.653282 1.116302,1.332535 2.359985,2.770668c0.662048,0.765541 1.350861,1.551659 2.058014,2.3535c0.716858,0.812843 1.440643,1.626854 2.165985,2.434502c0.716675,0.798012 1.418243,1.579979 2.776001,3.045334c0.63266,0.682816 1.240326,1.324928 1.824005,1.929001c0.555115,0.574493 1.089996,1.115349 1.608002,1.622993c0.494812,0.484917 0.970306,0.947929 1.901337,1.781334c0.441376,0.395103 0.8815,0.766716 1.313995,1.128006c0.426208,0.356026 0.853241,0.704643 1.277985,1.056c0.427917,0.353966 0.865845,0.709114 1.741333,1.482658c0.458649,0.405243 0.920044,0.834534 1.390503,1.276505c0.966522,0.90799 1.452545,1.376526 1.947327,1.841995c0.49588,0.466522 1.488892,1.389069 2.492859,2.260178c0.490448,0.425552 0.978821,0.833725 1.460999,1.225494c0.922577,0.749573 1.361237,1.103561 2.59848,2.019333c0.71875,0.531982 1.374054,0.990799 1.97702,1.376999c1.033936,0.662231 1.739594,1.057541 2.475983,1.361664c0.811523,0.335144 1.813141,0.610321 2.573517,0.825333c0.40979,0.115875 1.291504,0.359375 2.760162,0.800339c0.531708,0.159653 1.080353,0.341431 2.260651,0.658005c0.623169,0.167145 1.273529,0.325256 1.954498,0.451492c1.436066,0.26622 2.205139,0.334335 2.997345,0.400009c0.81485,0.067551 1.651886,0.110794 2.5065,0.148499c0.869385,0.038345 1.75116,0.06543 2.64151,0.1035c1.796326,0.076797 2.696198,0.135681 3.595978,0.201324c0.900238,0.065689 1.800018,0.141342 2.700012,0.216003c0.899994,0.074661 1.799622,0.152313 2.700012,0.216003c1.799316,0.127274 2.699005,0.166336 3.593323,0.198669c0.884033,0.031967 1.753296,0.051682 2.602509,0.064499c0.824127,0.012436 1.618317,0.017548 2.377502,0.019501c1.393311,0.003571 2.018982,0.001328 2.598663,0.001328c0.537659,0 1.037323,0 1.502991,0c0.845337,0 1.958344,0 2.963348,0c0.619995,0 1.474976,0 2.704498,0c0.646484,0 1.657166,0 2.457153,0c1,0 1.854401,-0.005707 2.685822,0.057159c1.149445,0.086914 1.621246,0.16217 2.682007,0.295502c0.569641,0.071609 1.741364,0.223206 2.326019,0.294678c0.57132,0.069839 2.119568,0.234283 2.968475,0.299988c0.712494,0.055145 1.608337,0.011795 2.66568,0.478012c0.819214,0.361206 1.560516,0.507248 2.497345,0.585327c1.016479,0.084717 1.578064,0.675247 2.47464,0.932175c0.866943,0.248428 1.871857,-0.165863 2.700012,0.223831c0.758362,0.356857 0.891663,1.340591 1.010681,2.243988c0.122162,0.927078 0.519989,1.626831 0.790649,2.276001c0.413788,0.992508 0.700806,1.833435 0.898682,2.417847c0.404205,1.193848 0.618622,1.784164 0.863983,2.6595c0.297638,1.061798 0.284515,1.804626 0.545837,2.631485c0.332886,1.053253 0.925812,1.59256 1.407501,2.204514c0.618011,0.785141 1.070953,1.626343 1.649323,2.399994c0.461945,0.61792 0.996613,1.224274 1.833344,1.833328c0.781342,0.568741 1.51181,0.834686 2.643158,0.824173c0.678162,-0.006302 1.417419,-0.177429 2.223022,-0.195007c1.30072,-0.028381 2.224213,0.180862 2.695496,0.313507c0.988617,0.278244 1.491699,0.4758 2.524994,0.91333c1.087311,0.460403 1.636627,0.7285 2.198669,0.99733c1.154449,0.552185 1.737122,0.851929 2.325317,1.160004c0.59549,0.31189 1.202728,0.619339 2.988495,1.674332c0.598297,0.353455 1.179901,0.72023 1.747528,1.083008c0.55069,0.351959 1.570221,1.024994 2.026642,1.341324c1.126007,0.78038 1.852875,1.339905 2.626678,2.054672c0.604889,0.558746 1.441315,0.883865 2.200012,1.283997c0.858368,0.452713 1.65567,0.767502 1.799988,1.716003c0.120331,0.790909 0,1.699997 0,2.600006c0,0.899994 0,1.799988 0,2.699997c0,0.899994 0.198181,1.86058 -0.166656,2.699997c-0.297546,0.684555 -1.126892,1.322372 -1.647675,1.757172c-0.707855,0.590988 -1.465149,1.152603 -1.863007,1.813492c-0.233887,0.388504 -0.675171,2.094177 -0.737,2.842667c-0.068176,0.825195 -0.073792,1.713394 -0.062988,2.639999c0.011047,0.946793 0.048309,1.893326 0.080994,2.820007c0.031281,0.886642 0.074829,2.460281 0.053162,3.111496c-0.018646,0.560928 0.00882,1.060333 -0.21933,1.785995c-0.239838,0.762924 -1.125153,1.431625 -1.784821,1.981842c-0.815491,0.680176 -1.10968,1.298859 -1.819336,2.24733c-0.471863,0.630661 -0.891449,1.04599 -1.605347,1.77066c-0.869995,0.883133 -1.236633,1.240906 -1.659332,1.692169c-0.522095,0.557373 -1.155975,1.262878 -1.925995,2.1465c-0.942841,1.08194 -2.074432,2.400635 -4.976013,5.890671c-1.827576,2.198212 -3.849487,4.668106 -6.026978,7.328995c-2.278564,2.784393 -4.598145,5.629227 -6.909027,8.463013c-2.247101,2.755569 -4.369629,5.370529 -8.063995,9.874664c-1.462646,1.783218 -2.676575,3.253342 -3.679504,4.441498c-0.807343,0.956421 -1.458862,1.711136 -1.99649,2.290497c-0.430267,0.463684 -0.801392,0.834335 -1.490662,1.434662c-0.361237,0.314621 -0.759949,0.642075 -1.194,0.985504c-0.464478,0.367493 -0.969025,0.748734 -1.518005,1.138504c-0.583527,0.414276 -1.206207,0.85083 -2.621338,1.70932c-0.767395,0.465546 -1.588654,0.92215 -2.447998,1.3815c-0.884644,0.47287 -1.799103,0.936951 -2.735992,1.390503c-0.945099,0.45752 -1.895691,0.911255 -3.81601,1.727997c-0.941193,0.400299 -1.88092,0.767639 -2.809479,1.132507c-0.920776,0.361816 -1.838379,0.716675 -2.746521,1.087494c-0.908203,0.37085 -1.825348,0.733398 -3.610657,1.613342c-0.907776,0.447418 -1.799469,0.945099 -2.682007,1.462494c-0.880188,0.515991 -1.738251,1.052795 -2.574005,1.597504c-0.818878,0.533722 -1.609375,1.063812 -3.077332,2.106659c-0.683289,0.485413 -1.322449,0.957153 -1.9245,1.405518c-0.56723,0.422394 -1.096252,0.82373 -1.591492,1.198486c-0.46109,0.348907 -0.883606,0.678619 -1.650665,1.22934c-0.333038,0.239136 -0.642975,0.446899 -0.928497,0.632996c-0.262543,0.171112 -0.509369,0.324768 -0.739502,0.471008c-0.218872,0.139099 -0.434357,0.268555 -0.832001,0.562653c-0.203156,0.150238 -0.400299,0.315491 -0.59549,0.486023c-0.195496,0.170807 -0.384613,0.346313 -0.568512,0.521973c-0.179749,0.171692 -0.350922,0.341095 -0.669342,0.658691c-0.145264,0.144867 -0.280457,0.280884 -0.409485,0.404999c-0.120392,0.115814 -0.234619,0.222015 -0.346497,0.315002c-0.104614,0.086914 -0.202942,0.171448 -0.410675,0.279999c-0.097321,0.050842 -0.199463,0.084503 -0.299988,0.113983c-0.099487,0.029175 -0.200256,0.051727 -0.300018,0.078003c-0.10025,0.026398 -0.204773,0.047943 -0.399994,0.141327c-0.102814,0.049194 -0.200928,0.116028 -0.299988,0.186005c-0.100952,0.07132 -0.199524,0.14798 -0.300018,0.222015c-0.099518,0.073303 -0.194122,0.151917 -0.399994,0.258667c-0.097321,0.050476 -0.198212,0.084076 -0.295502,0.113983c-0.093414,0.028717 -0.192749,0.032166 -0.268494,0.078003c-0.503387,0.304596 -0.670135,1.293488 -0.88266,1.917328c-0.212555,0.623901 -0.453735,1.508942 -0.720001,2.723999c-0.163452,0.74588 -0.320526,1.581238 -0.494995,2.487c-0.185577,0.963562 -0.37677,1.971985 -0.585022,3.009003c-0.211731,1.054352 -0.411224,2.116272 -0.919983,4.170685c-0.24472,0.988159 -0.523834,1.966034 -0.889496,2.945984c-0.389038,1.042542 -0.898804,2.150177 -1.546509,3.34201c-0.732422,1.347748 -1.627625,2.854279 -4.063995,6.378662c-1.473358,2.131317 -3.171204,4.413574 -4.983002,6.837006c-1.878601,2.512787 -3.806,5.040039 -5.721008,7.539001c-1.853729,2.418976 -3.619354,4.689301 -6.629333,8.623993c-1.187439,1.552216 -2.155823,2.835846 -2.928009,3.880493c-0.611023,0.826599 -1.075409,1.471283 -1.415985,1.963501c-0.250549,0.362091 -0.418915,0.634033 -0.656006,0.989349c-0.097931,0.146729 -0.199005,0.283417 -0.299988,0.414001c-0.09903,0.128082 -0.2005,0.252289 -0.300018,0.377991c-0.100494,0.126923 -0.205933,0.254547 -0.399994,0.541321c-0.10321,0.152527 -0.200867,0.316864 -0.299988,0.486023c-0.100861,0.17215 -0.199585,0.347565 -0.300018,0.521973c-0.099579,0.172913 -0.193451,0.345551 -0.399994,0.658691c-0.096985,0.147034 -0.197449,0.282074 -0.299988,0.404999c-0.097626,0.117035 -0.197418,0.222809 -0.300018,0.315002c-0.097626,0.087738 -0.193451,0.1716 -0.399994,0.279999c-0.097076,0.050934 -0.198212,0.084076 -0.295502,0.113983c-0.093414,0.028717 -0.184235,0.050812 -0.268494,0.078003c-0.079407,0.025604 -0.163055,0.043274 -0.269348,0.141327c-0.052399,0.04834 -0.085846,0.118744 -0.113983,0.195007c-0.030914,0.083771 -0.170013,0.827728 -0.573517,1.638336c-0.428345,0.860565 -0.963287,1.424164 -1.750824,1.752655c-0.372528,0.155396 -2.04129,0.573334 -2.773651,0.730011c-0.798248,0.170776 -1.649933,0.336121 -2.538025,0.49649c-0.906555,0.163727 -1.817505,0.318634 -2.717987,0.451508c-1.696625,0.250366 -2.468781,0.332092 -3.18399,0.398682c-0.662201,0.061676 -1.27713,0.102905 -1.848022,0.128998c-0.530518,0.024261 -1.487976,0.040314 -2.723328,0.041656c-1.049988,0.001129 -1.649994,0 -2.800323,0c-0.834015,0 -1.743011,0 -2.643005,0c-0.899994,0 -1.816895,0.106781 -1.667999,0.756012c0.105164,0.458496 0.370667,1.045837 1.167999,2.743988c0.54303,1.156555 1.213867,2.480469 1.972504,3.950989c0.820862,1.591125 1.707306,3.261536 2.647491,4.97702c0.954712,1.741974 1.900818,3.484833 3.880005,6.738647c0.916321,1.506439 1.82431,2.889709 2.696991,4.164001c0.810791,1.183929 1.588013,2.25766 2.319,3.227997c0.664337,0.881897 1.27771,1.66272 2.317352,2.941345c0.412048,0.506744 0.760925,0.91452 1.007996,1.249512c0.174438,0.236542 0.279572,0.427002 0.216003,0.466492c-0.112762,0.070038 -0.382141,-0.098999 -1.223999,-0.549347c-0.616272,-0.329681 -1.334717,-0.74295 -2.14502,-1.21048c-0.883148,-0.509583 -1.815063,-1.057404 -2.774994,-1.633514c-0.973419,-0.584198 -1.943054,-1.162048 -3.746674,-2.322662c-0.819641,-0.527435 -1.562256,-1.033264 -2.239502,-1.497009c-0.612,-0.419067 -1.153412,-0.798981 -1.636475,-1.118988c-0.413727,-0.274048 -0.738434,-0.569427 -1.29068,-0.717346c-0.166992,-0.044739 -0.308868,0.009216 -0.384003,0.10202c-0.079346,0.097992 -0.108063,0.235016 -0.167999,0.354004c-0.056732,0.11261 -0.154114,0.25177 -0.447998,0.210663c-0.240723,-0.033691 -0.511017,-0.219666 -0.825012,-0.420013c-0.353424,-0.225525 -0.719025,-0.4935 -1.095001,-0.779999c-0.380768,-0.290161 -0.756531,-0.57486 -1.694,-1.368988c-0.46225,-0.391571 -1.170227,-1.15274 -1.690491,-1.912506c-0.443848,-0.648132 -1.177063,-1.369141 -2.042816,-1.285675c-0.937256,0.090363 -1.590759,1.011444 -2.173523,1.412994c-0.736694,0.507599 -1.701996,0.410919 -2.593811,0.80484c-0.740051,0.326874 -1.384857,0.98288 -1.052002,1.88266c0.316193,0.854736 0.633209,1.314117 1.208313,2.375c0.300659,0.554657 0.609619,1.103851 0.908997,1.641022c0.7854,1.409271 1.216278,2.106506 1.58136,2.927979c0.436554,0.982269 0.634644,1.889343 1.042664,2.489349l0.425323,0.87915" id="svg_10" stroke-linecap="null" stroke-linejoin="null" stroke-dasharray="null" stroke="#fff" fill="none"/>
  <path d="m253,380c-1.543335,3.307678 -1.768555,3.83017 -2.293335,4.990662c-0.287384,0.635529 -0.596283,1.300476 -0.929993,1.989014c-0.346161,0.714203 -1.10495,2.189758 -1.519348,2.941162c-0.420227,0.761993 -0.858978,1.520538 -1.307983,2.272491c-0.445679,0.746368 -0.895813,1.475128 -1.343994,2.182495c-0.434601,0.685944 -1.269196,1.959412 -1.663513,2.53952c-0.377808,0.555817 -0.755737,1.09436 -1.144501,1.625977c-0.398163,0.544464 -0.825439,1.105988 -1.288513,1.697998c-0.500732,0.640167 -1.67453,2.094788 -2.357819,2.931c-0.735321,0.899841 -1.510864,1.841858 -2.307007,2.811005c-0.802521,0.976868 -1.596069,1.942841 -2.360992,2.882996c-0.725677,0.891907 -1.986938,2.465973 -2.489655,3.12085c-0.430054,0.560242 -0.787354,1.044861 -1.080017,1.465485c-0.250122,0.359467 -0.455566,0.677307 -0.630005,0.961517c-0.158691,0.258575 -0.444122,0.758148 -0.768646,1.27182c-0.344513,0.545288 -0.699402,1.110504 -1.514679,2.149353c-0.385315,0.490997 -1.088409,1.066895 -1.666656,2.166656c-0.294067,0.559265 -0.404541,1.440063 -1.037842,2.105347c-0.585052,0.614594 -0.928955,1.295135 -1.59549,2.137482c-0.639862,0.808624 -1.115326,1.431091 -2,1.700012c-0.862946,0.262299 -1.751862,0.364441 -2.457184,0.704498c-0.850708,0.410156 -1.817047,0.320374 -2.521667,0.745819c-0.670654,0.404938 -1.203094,1.09024 -2.054504,1.940186c-0.537872,0.536926 -1.139313,1.139313 -1.79248,1.787994c-0.686798,0.682068 -1.393433,1.38028 -2.107513,2.075989c-0.700928,0.682922 -1.367889,1.343811 -2.600006,2.46933c-0.511017,0.466827 -0.964233,0.855255 -1.362,1.176025c-0.338837,0.273254 -1.152283,0.770569 -1.920654,1.358643c-0.671143,0.513672 -1.349426,1.301392 -1.884003,1.777832c-0.806488,0.718811 -1.516113,0.952179 -2.484009,1.30484c-0.704041,0.256531 -1.627563,0.673279 -2.515991,0.716003c-0.799072,0.038422 -1.697571,-0.039703 -2.32132,-0.664154c-0.566071,-0.566681 -1.00058,-1.35434 -1.657166,-2.192841c-0.482422,-0.616089 -1.154083,-1.445068 -1.778687,-1.785828c-0.837769,-0.457092 -1.712616,-0.368866 -2.664825,-0.578857c-0.854858,-0.188538 -1.497528,-0.422333 -2.235321,-0.664978c-1.308899,-0.430481 -1.802551,-0.594116 -2.861359,-0.970673c-0.56604,-0.201324 -1.153198,-0.415619 -1.751984,-0.661499c-1.908875,-0.783813 -2.552887,-1.119232 -3.212006,-1.4505c-0.667938,-0.335693 -1.333618,-0.689026 -1.99649,-1.051514c-0.661133,-0.361542 -1.312195,-0.728912 -1.951508,-1.096497c-1.238327,-0.712006 -2.398254,-1.396698 -2.955002,-1.721008c-0.541931,-0.315674 -1.068573,-0.62735 -2.105331,-1.199982c-0.504364,-0.278595 -2.006256,-1.045563 -2.507675,-1.274994c-0.985703,-0.450989 -1.476654,-0.654907 -2.444168,-1.025024c-0.470016,-0.17981 -1.833542,-0.645966 -2.690994,-0.90448c-0.802032,-0.241791 -1.555481,-0.427429 -2.532837,-0.757172c-0.826447,-0.278839 -1.507355,-0.609589 -2.533661,-1.099823c-0.618271,-0.295319 -1.303986,-0.59729 -2.442169,-0.779022c-0.654068,-0.104431 -1.689621,-0.103149 -2.304169,-0.290497c-1.24913,-0.380829 -1.603119,-1.142303 -2.595993,-1.58783c-0.66684,-0.299225 -1.506897,-0.11969 -2.486664,-0.528168c-0.722946,-0.301422 -1.314392,-1.245605 -2.137344,-1.548004c-0.794083,-0.291779 -1.850082,0.009796 -2.631989,-0.251984c-0.799698,-0.267731 -1.526901,-1.008179 -2.222168,-1.435516c-0.583969,-0.358948 -1.392944,-0.946777 -2.143173,-1.653809c-0.683411,-0.644073 -1.212479,-1.198212 -2.00267,-1.992004c-0.491623,-0.493866 -1.067337,-1.060486 -1.833328,-2c-0.415588,-0.509735 -0.81604,-1.084015 -1.272003,-1.680023c-0.492966,-0.644379 -1.367722,-1.679871 -1.707993,-2.046661c-0.756897,-0.815857 -1.205338,-1.2547 -1.693344,-1.733337c-0.533478,-0.523224 -1.122787,-1.09082 -2.493332,-2.373322c-0.780136,-0.730011 -1.618118,-1.501953 -2.492996,-2.307007c-0.895767,-0.82428 -1.798615,-1.651367 -2.690994,-2.468994c-0.866287,-0.793701 -1.692947,-1.546875 -3.149338,-2.890656c-0.607452,-0.560486 -1.133881,-1.050018 -1.585495,-1.480499c-0.392151,-0.37381 -0.729996,-0.704102 -1.018509,-1.00351c-0.258194,-0.267944 -0.491806,-0.517548 -0.895996,-1.015991c-0.203812,-0.251343 -0.788254,-1.048798 -1.164001,-1.572021c-0.667404,-0.929352 -1.197342,-1.591858 -1.835999,-2.261322c-0.518677,-0.543701 -1.165695,-1.334045 -1.652664,-2.000824c-0.52095,-0.713287 -1.090515,-1.678131 -1.826508,-1.936676c-0.861481,-0.302612 -1.349152,-0.68869 -1.877991,-1.358002c-0.585571,-0.741119 -1.537003,-0.765076 -2.46817,-1.129822c-0.697739,-0.273285 -1.703537,-0.476746 -2.479172,-0.931854c-0.63063,-0.370026 -1.362854,-0.918304 -2.042831,-1.342834c-0.916473,-0.572174 -1.465118,-1.176453 -1.957169,-1.957153c-0.465881,-0.739166 -0.9935,-1.564026 -1.531494,-2.132172c-0.545563,-0.576111 -1.358017,-1.198334 -2.143173,-1.689819c-0.847992,-0.530823 -1.524323,-0.996674 -2.121002,-1.621338c-0.559525,-0.585754 -1.071136,-1.396881 -1.55249,-2.252991c-0.350723,-0.623779 -0.56488,-1.33429 -1.326172,-2.161011c-0.594116,-0.645172 -1.571167,-1.141296 -2.026505,-1.548004c-0.502945,-0.449249 -1.238937,-1.158752 -2.023987,-1.96817c-0.558197,-0.575531 -1.087372,-1.281555 -1.470673,-1.990173c-0.523071,-0.967041 -0.786972,-1.593201 -1.257172,-2.43631c-0.544098,-0.975647 -0.89682,-1.494659 -1.417496,-2.317505c-0.342209,-0.540802 -0.955841,-1.536499 -1.325333,-2.266998c-0.263107,-0.520172 -0.822647,-1.822357 -0.985336,-2.214355c-0.353165,-0.850952 -0.725739,-1.775848 -0.919159,-2.257477c-0.596771,-1.485992 -0.792252,-1.987915 -1.200012,-2.986511c-0.204453,-0.500702 -0.625168,-1.502838 -0.852661,-2c-0.690445,-1.508881 -0.959579,-2.002106 -1.226837,-2.497345c-0.532242,-0.986267 -0.81076,-1.464111 -1.363327,-2.388336c-0.266159,-0.44516 -1.025146,-1.675049 -1.495499,-2.395477c-0.430862,-0.659943 -0.824081,-1.27533 -1.657166,-2.297516c-0.580536,-0.712311 -1.022934,-1.127655 -1.800003,-2.087982c-0.409668,-0.506287 -0.980637,-1.298889 -1.28566,-1.823517c-0.589203,-1.013397 -0.978806,-1.791779 -1.71434,-2.176483c-0.687317,-0.359467 -1.461807,-1.077454 -2.174667,-1.397339c-0.915344,-0.410736 -1.96373,-0.113495 -2.658661,-0.602661c-0.715027,-0.503326 -1.138077,-1.18924 -1.166672,-2.137848c-0.02597,-0.861755 -0.035873,-1.696167 0.000168,-2.674164c0.02858,-0.775543 0.388367,-1.659851 0.647171,-2.368652c0.368729,-1.009827 0.310867,-1.978119 0.394333,-2.736023c0.085907,-0.779938 0.388351,-1.786591 0.686157,-2.606171c0.168594,-0.463989 0.597397,-1.488312 0.852676,-2.052643c0.273773,-0.605194 0.916718,-1.925903 1.283325,-2.643005c0.383942,-0.751007 0.789703,-1.520966 1.201508,-2.305511c0.413864,-0.788452 0.825577,-1.570496 1.219498,-2.341492c0.380661,-0.745056 1.055206,-2.131531 1.32933,-2.760345c0.252029,-0.578156 0.473129,-1.117493 0.823334,-2.103333c0.31192,-0.878082 0.718826,-2.108368 1.046494,-2.901489c0.163528,-0.395844 0.510437,-1.163696 0.863342,-1.888336c0.621399,-1.27597 0.991821,-2.045685 1.34816,-2.648163c0.473618,-0.800781 1.066132,-1.355194 1.952667,-1.970673c0.645279,-0.447998 1.01825,-1.241608 1.400009,-1.985657c0.405869,-0.791016 1.5457,-0.64566 2.151825,-1.277832c0.610474,-0.636719 1.118057,-1.28302 1.966675,-1.598663c0.848663,-0.315674 1.761719,-0.733521 2.291656,-1.333344c0.618256,-0.699799 0.987793,-1.481995 1.863007,-1.5c0.853149,-0.017548 1.921814,0.237 2.594666,-0.283997c0.631851,-0.489258 1.417816,-0.911621 2.125671,-1.25766c0.65715,-0.321228 1.64653,-0.937256 2.183655,-1.294342c0.553757,-0.368134 1.613663,-1.157257 2.090668,-1.563995c0.692352,-0.590363 1.357391,-1.213287 2.105179,-1.800018c0.782623,-0.614075 1.376556,-0.936218 2.245499,-1.799988c0.564728,-0.561371 0.91481,-1.223969 1.5,-2c0.460678,-0.610931 1.107925,-1.406525 1.949326,-1.830658c0.721786,-0.363831 1.791809,-0.481262 2.314667,-0.970673c0.707153,-0.661926 0.377914,-1.828522 0.931,-2.494171c0.618713,-0.744659 1.503174,-0.620728 2.324997,-0.87384c1.025772,-0.315918 1.543625,-0.668121 2.303513,-1.182495c0.885727,-0.599579 1.597458,-1.088409 1.925827,-2.132172c0.209854,-0.667023 0.367996,-1.630646 0.800003,-2.314667l0.367996,-0.915985l0.749329,-0.451996l0.166672,-0.833344" id="svg_11" stroke-linecap="null" stroke-linejoin="null" stroke-dasharray="null" stroke="#fff" fill="none"/>
  <path d="m183,146c-1.020844,0 -1.978821,0.00058 -2.809845,0c-0.963501,-0.000671 -1.774384,-0.007523 -2.413483,-0.057159c-1.112061,-0.08638 -1.945099,-0.224243 -2.827332,-0.368179c-0.899109,-0.146683 -1.340286,-0.249557 -2.616013,-0.40799c-1.111771,-0.138077 -1.776245,-0.122253 -2.645325,-0.250671c-1.014282,-0.149887 -1.703659,-0.451019 -2.457336,-0.717331c-1.192245,-0.42128 -1.891708,-0.599686 -2.615997,-0.798676c-0.73172,-0.201035 -1.79126,-0.506409 -2.778671,-0.789322c-0.624161,-0.178833 -1.834396,-0.456619 -2.434662,-0.526672c-0.87854,-0.102524 -1.73024,-0.106705 -2.716003,-0.367996c-0.89093,-0.23616 -1.679001,-0.59697 -2.485336,-0.680008c-0.796539,-0.082016 -1.808533,0.00502 -2.657166,-0.093155c-0.971405,-0.112381 -1.754532,-0.378799 -2.533005,-0.590179c-1.036743,-0.281525 -1.892487,-0.35199 -2.845825,-0.352661c-0.765335,-0.000534 -1.764008,0 -2.563995,0c-1,0 -1.800003,0 -2.799835,0c-0.779343,0 -1.778671,0 -2.598831,0c-0.873337,0 -1.745209,0.031555 -2.70134,-0.020828c-0.733734,-0.040192 -1.628357,-0.445862 -2.5,-0.8125c-0.777374,-0.326996 -1.768631,-0.458023 -2.541672,-0.666672c-0.565887,-0.15274 -1.757416,-0.384125 -2.636993,-0.47467c-0.806503,-0.083023 -1.687729,-0.228867 -2.472,-0.636002c-0.902908,-0.468735 -1.591385,-0.805527 -2.343994,-1.032166c-1.025589,-0.308853 -1.889359,-0.315506 -2.841339,-0.367828c-0.767807,-0.042206 -1.77124,-0.330017 -2.363998,-0.600006c-1.012955,-0.461365 -1.779175,-0.8685 -2.633331,-1.222656l-0.805008,-0.219345l-0.445663,-0.66333" id="svg_12" stroke-linecap="null" stroke-linejoin="null" stroke-dasharray="null" stroke="#fff" fill="none"/>
  <path d="m199,113c-1.563995,-0.610664 -1.831085,-1.476028 -2.361664,-2.304497c-0.422241,-0.659317 -1.108002,-1.196274 -1.65918,-1.695503c-0.952972,-0.863152 -1.588165,-1.251831 -2.25116,-1.661331c-0.498657,-0.307999 -1.705231,-1.109413 -2.051331,-1.371002c-0.76886,-0.581123 -1.186218,-0.915054 -2.049988,-1.71167c-0.97879,-0.90271 -1.473083,-1.438164 -1.99469,-1.994667c-0.541199,-0.577385 -1.085114,-1.181816 -1.631989,-1.802994c-0.551849,-0.626816 -1.096832,-1.26017 -1.631989,-1.893005c-1.038879,-1.228455 -1.526337,-1.821114 -1.996002,-2.394661c-0.45462,-0.555161 -0.892822,-1.095924 -1.309509,-1.629005c-0.80307,-1.02742 -1.187195,-1.529976 -1.895844,-2.541664c-0.692505,-0.98867 -1.007416,-1.489456 -1.319977,-1.978668c-0.604675,-0.946373 -0.880493,-1.409821 -1.680023,-2.687996c-0.477295,-0.763031 -0.921616,-1.449623 -1.319992,-2.076004c-0.361481,-0.568382 -0.962662,-1.573334 -1.346664,-2.257332c-0.384003,-0.683998 -0.981888,-1.687546 -1.335999,-2.236c-0.563034,-0.872047 -1.16214,-1.765251 -1.563995,-2.362663c-0.398163,-0.591911 -0.98201,-1.458145 -1.600006,-2.234673c-0.578964,-0.727478 -1.021942,-1.135239 -1.514664,-1.850662c-0.661209,-0.960075 -0.946915,-1.816032 -1.238007,-2.306168c-0.649429,-1.093491 -1.32048,-1.408882 -2.080658,-2.176498c-0.605743,-0.611664 -0.884338,-1.264069 -1.488342,-2.033501c-0.497177,-0.633362 -1.138412,-1.258583 -1.845001,-1.966499c-0.516174,-0.517151 -1.041183,-1.066956 -1.880661,-1.823502c-0.770355,-0.694256 -1.493912,-1.209888 -2.177994,-1.6245c-0.933228,-0.565613 -1.466736,-0.867142 -2.032013,-1.242668c-0.629929,-0.41848 -1.321609,-0.905407 -2.485657,-1.785831c-0.430267,-0.325432 -1.330658,-1.037472 -1.798676,-1.419334c-0.481369,-0.392754 -0.980972,-0.788193 -2.458328,-2.104168c-0.504547,-0.449429 -1.000381,-0.915531 -1.495499,-1.385998c-0.495544,-0.470871 -1.469238,-1.421257 -1.947342,-1.894669c-0.472565,-0.46793 -1.391006,-1.385475 -1.835327,-1.830997c-0.856674,-0.858997 -1.269379,-1.270298 -2.039169,-2.075001c-0.366165,-0.382778 -1.35878,-1.47229 -1.91333,-2.161335c-0.516907,-0.642269 -0.974426,-1.282131 -1.451996,-1.883999c-0.724335,-0.91288 -1.270004,-1.501335 -1.817337,-2.101334c-0.547333,-0.599998 -1.342056,-1.493092 -1.813339,-2.097332c-0.44838,-0.574883 -1.006195,-1.402405 -1.519989,-2.069336c-0.62352,-0.809364 -1.303757,-1.401154 -1.766678,-1.969334c-0.655457,-0.804497 -1,-1.502666 -1.599991,-2.193333l-0.899841,-0.170834" id="svg_13" stroke-linecap="null" stroke-linejoin="null" stroke-dasharray="null" stroke="#fff" fill="none"/>
  <path d="m216,217c0.682678,0.682663 1.325958,1.340942 2.05484,2.041336c0.310059,0.297928 1.087921,0.998978 1.568665,1.41066c0.54425,0.466064 1.873993,1.551193 2.669159,2.176178c0.865967,0.680634 1.797058,1.39534 2.778015,2.134491c1.010315,0.761276 2.042633,1.52504 3.083984,2.278503c1.028015,0.74382 3.00827,2.131042 3.938019,2.751328c0.87851,0.58609 1.722778,1.126846 2.537994,1.627502c0.782928,0.48082 1.549713,0.930664 2.303986,1.357498c0.741791,0.419785 2.231323,1.223755 2.986664,1.622665c0.761993,0.402435 1.531952,0.803192 2.304016,1.21051c0.775269,0.409012 1.55127,0.821793 2.321991,1.24649c0.77063,0.424652 2.288971,1.304718 3.031006,1.764008c0.737946,0.456757 1.461029,0.9254 2.174988,1.393494c0.706055,0.462921 1.398956,0.925552 2.085022,1.375504c0.673981,0.442032 1.99234,1.28093 2.639648,1.666672c0.630096,0.375488 1.250031,0.726685 1.854004,1.060501c0.583405,0.322449 1.149292,0.625366 1.691986,0.916489c0.518646,0.278214 1.477417,0.797028 1.911499,1.044678c0.409851,0.233826 0.794159,0.462433 1.156525,0.685501c0.346619,0.213364 0.676666,0.424301 0.994476,0.631485c0.31015,0.202179 0.913452,0.604614 1.213348,0.804337c0.298767,0.198944 0.886047,0.594833 1.464172,0.964172c1.06311,0.679184 1.554901,0.946854 2.461334,1.461334c0.944366,0.535995 1.466949,0.847565 2.274658,1.395493c0.553131,0.375244 1.34024,0.971039 2.042847,1.574677c0.652985,0.56102 1.450897,1.247025 2.061646,1.656326c0.625244,0.419006 1.569275,1.073181 2.079498,1.516174c0.827759,0.718689 1.340759,1.254028 2.149353,1.898651c0.686615,0.547363 1.403351,0.860931 2.145325,1.654846c0.595581,0.637299 0.867157,1.310059 1.505341,2.075836c0.487976,0.585541 1.30719,1.411499 2.141327,1.581329c0.841705,0.171356 1.794922,-0.08548 2.617493,0.37851c0.865112,0.487976 1.239807,1.19751 2.078491,1.742645c0.651886,0.423737 1.544952,0.630676 2.374176,0.95285c0.756348,0.293854 1.469391,0.950226 2.129852,1.347321c1.005341,0.604431 1.519592,1.041412 2.341309,1.600006c0.637299,0.433258 1.349335,0.799988 2.197357,1.389343l0.835999,0.526642l0.799988,0.250671l0.700012,0.480682" id="svg_14" stroke-linecap="null" stroke-linejoin="null" stroke-dasharray="null" stroke="#fff" fill="none"/>
  <path d="m164,255c3.963837,2.421173 4.448669,2.686493 5.465332,3.214661c0.512848,0.266418 1.519241,0.776031 1.99733,1.015991c1.25116,0.628021 1.926514,0.955719 2.802673,1.420013c0.588303,0.311768 1.599442,0.891388 2.401657,1.359161c0.430573,0.251068 1.327881,0.777466 1.789337,1.041992c1.373657,0.787384 1.816437,1.03949 2.709015,1.495514c0.911469,0.465668 1.400543,0.685944 1.915985,0.905334c1.740784,0.740967 2.424194,0.971191 3.137329,1.230011c0.739166,0.26828 1.496826,0.533447 2.260498,0.796478c0.75769,0.260986 1.500092,0.511719 2.215515,0.751495c1.304901,0.437317 2.391388,0.799255 2.857819,0.9505c0.800629,0.259613 1.749939,0.552917 2.763519,0.736176c0.905975,0.163818 1.864319,0.388733 2.636658,0.792511c0.557892,0.291656 1.353271,0.824585 2.125671,1.268494c0.86911,0.499481 1.779968,0.775024 2.510986,1.046997c0.860657,0.32019 1.573212,0.981537 2.236023,1.374664c0.686462,0.407135 1.538116,1.00058 2.174652,1.600006c0.599487,0.564545 1.430145,0.911652 2.321503,1.221497c0.718536,0.249756 1.675232,0.785156 2.28299,1.078491c0.848206,0.409363 1.820099,0.79187 2.62085,1.110687c0.551605,0.219604 1.616028,0.744293 2.321991,1.237488c0.686005,0.479279 1.607117,1.066681 2.400848,1.242004c0.781403,0.172607 1.724121,0.263 2.530975,0.609833c0.848206,0.364594 1.823059,0.283447 2.411011,0.857178c0.665771,0.649658 0.982056,1.41748 1.945831,1.617493c0.756958,0.157104 1.75769,0.395844 2.364014,0.600006c0.990387,0.333466 1.837891,0.243073 2.778473,0.64682c0.794434,0.341003 1.202942,1.288025 2.121521,1.657013c0.842712,0.338501 1.698151,0.176086 2.384003,0.690826c0.740173,0.555511 1.289825,1.332031 1.995148,1.889008c0.669769,0.528931 1.242767,1.032074 1.573517,1.836334c0.311005,0.756226 0.830322,1.325928 0.96817,2.226166c0.151245,0.987671 0.537048,1.73761 1.300476,2.457489c0.457062,0.431 1.539886,0.767334 2.268005,1.046997c0.844055,0.324188 1.187225,1.156158 1.431519,1.97467c0.254547,0.852844 0.860748,1.361176 1.581818,1.884003c0.807007,0.585114 1.385834,1.106537 2.230682,1.949341c0.536682,0.53537 1.13739,1.352814 1.577332,1.981323c0.445953,0.637085 1.433899,0.690216 2.255981,1.35199c0.557465,0.448761 0.333344,1.533356 0.333344,2.43335l0.020844,0.87915l0.589813,0.510162" id="svg_15" stroke-linecap="null" stroke-linejoin="null" stroke-dasharray="null" stroke="#fff" fill="none"/>
  <path d="m123,316c1.792007,0.865326 2.439102,1.387451 2.875,1.708344c0.518158,0.381439 1.141541,0.816376 1.893005,1.292999c1.881256,1.193207 3.071335,1.853638 4.383987,2.589325c1.414474,0.792725 2.916061,1.610382 4.473007,2.450989c1.584366,0.855408 3.175415,1.703857 4.742996,2.541016c2.965485,1.58371 4.317764,2.31015 5.585342,2.992004c1.197418,0.644135 2.338577,1.258667 3.44249,1.84198c1.076126,0.568634 2.141296,1.125397 3.217499,1.662018c2.212479,1.10321 3.391129,1.644928 4.598679,2.202667c1.223129,0.564941 2.451385,1.121094 3.662994,1.677002c1.183029,0.542786 2.324081,1.063446 3.393005,1.586975c1.908554,0.934784 2.70166,1.380859 3.398666,1.798676c0.627548,0.37619 1.18219,0.744812 1.6875,1.093506c0.474579,0.327515 0.9198,0.656616 1.372498,0.958496c0.929611,0.619873 1.455582,0.910248 2.011993,1.202667c0.577545,0.303528 1.182175,0.594604 1.802994,0.880493c0.627167,0.288818 1.260895,0.566315 1.893005,0.83551c1.229828,0.523773 1.822449,0.763367 2.393341,1.001343c0.553436,0.230682 1.090546,0.455841 1.609497,0.68399c0.506378,0.222626 1.000092,0.445068 1.474487,0.68399c0.928955,0.467896 1.369171,0.733704 1.805359,1.001343c0.436829,0.268036 0.868378,0.550079 1.303497,0.83551c0.440887,0.289215 0.886353,0.587769 1.34848,0.880493c0.958649,0.607239 1.470703,0.902557 1.997345,1.194672c0.531738,0.294952 1.070801,0.577118 1.612488,0.841492c0.531738,0.259521 1.053833,0.502014 1.567505,0.706512c0.945465,0.376404 1.387054,0.498566 1.797333,0.602661c0.382935,0.097137 0.747803,0.167725 1.093506,0.232483c0.330322,0.06189 0.651093,0.112457 0.958496,0.1875c0.608704,0.14859 0.906525,0.269989 1.202667,0.402679c0.299713,0.134277 0.592316,0.289032 0.880493,0.451508c0.28653,0.16156 0.562988,0.332153 0.83551,0.49649c0.997467,0.601532 1.662384,0.966003 2.685333,1.482666c0.598785,0.302429 1.406677,0.68692 2.397339,1.200012c0.564911,0.292572 1.251587,1.202393 1.936005,1.633331c0.739044,0.465332 1.817017,0.406525 2.362152,0.871155c0.747681,0.637268 0.937531,1.65564 1.747345,2.174164c0.63736,0.408112 1.700226,0.369873 2.252655,0.825836c0.805298,0.664673 0.368256,0.066345 -0.03949,-0.473846c-0.492584,-0.652618 -1.045563,-1.36557 -1.955017,-2.408142c-0.564301,-0.646912 -2.345886,-1.196533 -1.700989,-1.82251c0.405945,-0.394043 1.039612,1.047546 1.666656,1.833344c0.547699,0.686371 1.019043,1.566986 1.654663,2.145142c0.623901,0.567474 1.606628,0.922119 2.137024,1.521515c0.622894,0.703918 0.970673,1.621796 1.604156,2.020844c0.612549,0.385864 1.626862,0.956329 2.162842,1.315155c0.830505,0.556 1.611115,1.160309 2.326477,1.764008c0.4711,0.397552 1.198914,1.028046 2.090851,1.599823c0.64975,0.416504 1.354645,0.784515 2.052002,1.143005c0.968292,0.497742 1.807343,0.875946 2.484009,1.282501c0.84317,0.506592 1.582764,1.223877 2.164154,1.664825c0.861816,0.653625 1.657166,0.876495 2.357178,1.357178l0.863983,0.377991" id="svg_16" stroke-linecap="null" stroke-linejoin="null" stroke-dasharray="null" stroke="#fff" fill="none"/>
 </g>
</svg>